<svg width="18" height="18" viewBox="0 0 18 18" fill="none" xmlns="http://www.w3.org/2000/svg">
<path d="M7.5 3L17.25 3M7.5 3C7.5 3.82843 6.82843 4.5 6 4.5C5.17157 4.5 4.5 3.82843 4.5 3M7.5 3C7.5 2.17157 6.82843 1.5 6 1.5C5.17157 1.5 4.5 2.17157 4.5 3M0.750001 3H4.5M7.5 15H17.25M7.5 15C7.5 15.8284 6.82843 16.5 6 16.5C5.17157 16.5 4.5 15.8284 4.5 15M7.5 15C7.5 14.1716 6.82843 13.5 6 13.5C5.17157 13.5 4.5 14.1716 4.5 15M0.75 15L4.5 15M13.5 9L17.25 9M13.5 9C13.5 9.82843 12.8284 10.5 12 10.5C11.1716 10.5 10.5 9.82843 10.5 9M13.5 9C13.5 8.17157 12.8284 7.5 12 7.5C11.1716 7.5 10.5 8.17157 10.5 9M0.75 9H10.5" stroke="#006EB6" stroke-width="1.5" stroke-linecap="round" stroke-linejoin="round"/>
</svg>
