<svg width="22" height="20" viewBox="0 0 22 20" fill="none" xmlns="http://www.w3.org/2000/svg">
<path d="M8.60935 1.10408V6.81802C8.60935 7.41476 8.3723 7.98705 7.95034 8.40901L3.85935 12.5M8.60935 1.10408C8.35821 1.12743 8.10819 1.15465 7.85935 1.18568M8.60935 1.10408C9.3501 1.03521 10.1006 1 10.8593 1C11.6181 1 12.3686 1.03521 13.1093 1.10408M13.1093 1.10408V6.81802C13.1093 7.41476 13.3464 7.98705 13.7684 8.40901L18.6593 13.3M13.1093 1.10408C13.3605 1.12743 13.6105 1.15465 13.8593 1.18568M18.6593 13.3L17.0893 13.6925C15.005 14.2136 12.7809 13.9608 10.8593 13C8.93776 12.0392 6.7137 11.7864 4.62944 12.3075L3.85935 12.5M18.6593 13.3L20.0616 14.7022C21.2935 15.9341 20.7121 18.0202 18.9948 18.3134C16.3504 18.7649 13.6324 19 10.8593 19C8.08634 19 5.36825 18.7649 2.72394 18.3134C1.00662 18.0202 0.425251 15.9341 1.65714 14.7022L3.85935 12.5" stroke="#0064DF" stroke-linecap="round" stroke-linejoin="round"/>
</svg>
