<svg width="278" height="4" viewBox="0 0 278 4" fill="none" xmlns="http://www.w3.org/2000/svg">
<path d="M0.666667 2C0.666667 2.73638 1.26362 3.33333 2 3.33333C2.73638 3.33333 3.33333 2.73638 3.33333 2C3.33333 1.26362 2.73638 0.666667 2 0.666667C1.26362 0.666667 0.666667 1.26362 0.666667 2ZM274.667 2C274.667 2.73638 275.264 3.33333 276 3.33333C276.736 3.33333 277.333 2.73638 277.333 2C277.333 1.26362 276.736 0.666667 276 0.666667C275.264 0.666667 274.667 1.26362 274.667 2ZM2 2.25H276V1.75H2V2.25Z" fill="#0064DF"/>
</svg>
