<svg width="177" height="48" viewBox="0 0 177 48" fill="none" xmlns="http://www.w3.org/2000/svg">
<path fill-rule="evenodd" clip-rule="evenodd" d="M0 46.2343L1.1169 44.6744L26.7704 45.5736L26.6827 46.0985L0 46.2343V46.2343ZM1.75844 43.7782L3.57227 41.2452L27.2024 42.5317L27.3696 42.9049L1.75844 43.7782ZM4.18057 40.392L5.9098 37.9788L28.4079 39.1345L28.1813 39.7243L4.18057 40.392V40.392ZM6.68227 36.8989L8.36416 34.5496L30.2469 35.9229L30.0999 36.1794L6.68227 36.8989V36.8989Z" fill="#0064DF"/>
<path fill-rule="evenodd" clip-rule="evenodd" d="M19.2332 19.1913L33.07 0.0305786L47.6663 20.5107C49.7394 23.3963 50.851 26.8517 50.8458 30.3939C50.8458 39.8211 43.1312 47.4648 33.6159 47.4648C31.0084 47.4648 28.8633 47.0487 26.6466 46.0197C27.0635 38.0087 31.8796 31.6035 37.7209 31.6035C40.6567 31.6035 42.3547 31.9418 44.8594 35.853C45.9797 34.338 46.5894 32.5116 46.6017 30.6334C46.6017 26.1704 43.9772 22.6205 39.7765 22.828L10.9838 23.9518C10.6655 23.4568 10.5528 23.1025 10.5286 22.5157C10.5044 21.9338 10.5376 21.5715 10.7794 21.0396L13.2126 22.847L15.0375 23.1484L14.7041 21.5715L36.1156 22.345C36.8457 22.5117 37.737 22.6474 37.737 21.9438C37.737 21.2402 36.7591 20.33 35.609 19.835C34.3712 19.3011 32.3852 19.6105 28.9489 19.7691C22.6815 20.0576 14.2821 20.7861 14.2821 20.7861C14.2821 20.7861 13.7191 19.2332 13.7191 18.6294C13.7191 18.0266 13.7574 17.339 14.0475 16.5835C14.694 17.3989 15.1241 17.6963 16.0939 18.3011C17.51 19.1843 19.2332 19.1913 19.2332 19.1913V19.1913Z" fill="#0064DF"/>
<path fill-rule="evenodd" clip-rule="evenodd" d="M36.4408 25.6394C36.3139 25.5765 35.7257 25.5186 35.7257 25.1104C35.7257 24.2043 34.9321 23.4757 34.0156 23.4757L28.2438 23.8839L29.2328 24.7142C29.4785 24.7142 29.5974 24.9258 29.5974 25.1683C29.5974 25.4108 29.3124 25.4597 29.0676 25.4597L11.0381 24.8769C11.0381 24.8769 11.3342 26.0156 11.45 26.3649C11.5688 26.7162 11.9818 27.2122 12.3635 27.2701C12.7482 27.33 22.2041 26.9777 22.9695 27.0077C23.7349 27.0366 45.1826 26.4528 45.1826 26.4528C45.1826 26.4528 45.5059 26.4528 45.6237 26.5116C45.7406 26.5705 45.2108 25.5765 45.2108 25.5765C45.2108 25.5765 45.0628 25.8979 44.6801 25.9558C44.2963 26.0156 36.5657 25.7013 36.4408 25.6394V25.6394Z" fill="#0064DF"/>
<path fill-rule="evenodd" clip-rule="evenodd" d="M46.0345 29.8071C41.2487 29.9189 12.454 30.5866 11.2646 30.5027C9.96641 30.4099 8.48493 30.6864 8.48493 30.6864C8.48493 30.6864 7.55636 28.7383 7.37307 28.1155C6.90878 26.5546 7.74268 25.4528 7.74268 25.4528C7.74268 25.4528 10.2444 28.0247 13.0261 28.1155C15.556 28.1983 41.3988 29.1405 46.0063 29.3091C46.0063 29.3091 46.1846 29.374 46.243 29.2273C46.3014 29.0816 46.4203 28.848 46.4203 28.848C46.4203 28.848 46.5663 29.6355 46.5371 29.7532C46.5089 29.87 46.5371 30.1904 46.5371 30.1904C46.5371 30.1904 46.3598 30.0446 46.3004 29.9568C46.242 29.869 46.0345 29.8071 46.0345 29.8071V29.8071ZM45.6518 32.9339L9.03986 33.7153L9.1305 32.6135L8.85253 31.5117L45.9167 32.5826L46.2692 32.378L46.4172 32.2323C46.4172 32.2323 46.3568 32.7862 46.2692 32.9608C46.1831 33.1522 46.1048 33.347 46.0345 33.5447L45.9167 33.1944L45.6518 32.9339V32.9339Z" fill="#0064DF"/>
<path fill-rule="evenodd" clip-rule="evenodd" d="M79.6594 31.8709C79.6594 33.0206 78.1588 33.9238 76.9986 33.9238H67.5729V29.7522H73.7949C74.4213 29.7522 74.938 29.2362 74.938 28.6144V25.857C74.938 25.2352 74.4183 24.6893 73.7889 24.6893H65.8839V39.9897H61.0195V20.5935H76.9603C78.1225 20.5935 79.6695 21.6034 79.6695 22.7551L79.6594 31.8709ZM177 35.6524L174.972 35.6534C174.557 35.6534 174.098 35.342 173.902 35.0117L169.75 30.1923L173.979 25.3809C174.171 25.0376 174.547 24.7871 174.972 24.7871C175.062 24.7871 176.972 24.7631 176.972 24.7631L176.984 20.6244L172.143 20.6534C171.45 20.6534 170.832 21.0665 170.449 21.5795L166.064 26.4388L161.679 21.5795C161.297 21.0665 160.679 20.6534 159.985 20.6534L155.143 20.6244L155.155 24.7631C155.155 24.7631 157.067 24.7871 157.156 24.7871C157.581 24.7871 157.956 25.0376 158.151 25.3809L162.38 30.1923L158.227 35.0117C158.029 35.342 157.573 35.6534 157.156 35.6534L141.272 35.6394C140.645 35.6394 140.123 35.1993 140.123 34.5785V32.2891H151.092V28.1075H140.123V25.9657C140.123 25.344 140.621 24.7821 141.248 24.7821H152.512V20.6015H136.726C135.564 20.6015 134.662 21.5995 134.662 22.7502V37.7821C134.662 38.9328 135.465 39.8959 136.625 39.8959H160.102C160.775 39.8959 161.3 39.6245 161.686 39.1374L165.952 33.9707H166.172L170.439 39.1374C170.824 39.6235 171.351 39.8959 172.022 39.8959H176.996V35.6524H177ZM130.879 20.5935H125.855C124.962 20.5935 124.081 21.1633 123.645 21.8649L117.588 33.0995L111.403 21.8649C110.966 21.1633 110.087 20.5935 109.192 20.5935H104.171V34.6234C104.171 35.2452 103.581 35.6943 102.953 35.6943H89.7145C89.0881 35.6943 88.5291 35.2362 88.5291 34.6145V32.2721H99.5501V28.1763H88.6047V25.9288C88.6047 25.3071 89.1284 24.7631 89.7538 24.7631H100.731V20.5925H85.1905C84.0293 20.5925 83.0876 21.5665 83.0876 22.7172V37.861C83.0876 39.0117 84.0786 39.9648 85.2409 39.9648L106.979 39.9987C108.139 39.9987 109.343 38.8231 109.343 37.6714V28.9059L115.111 39.5047C115.605 40.1424 119.443 40.1424 119.936 39.5047L125.704 28.9059V39.9877H130.854L130.879 20.5935V20.5935Z" fill="#0064DF"/>
</svg>
