<svg width="147" height="59" viewBox="0 0 147 59" fill="none" xmlns="http://www.w3.org/2000/svg">
<path d="M47.6149 0.788787C45.6004 1.13032 45.336 1.15562 43.0823 1.09237L40.6901 1.01648L37.4165 1.5857C31.0456 2.71151 31.9522 2.62296 29.3081 2.36997L26.9663 2.15493L24.8007 2.66091C22.975 3.09099 22.2699 3.19219 20.2051 3.31868C18.8075 3.40723 16.9063 3.43253 15.7228 3.38193C12.9277 3.26808 9.67928 3.55902 6.75825 4.17885L4.55488 4.64688L2.31374 4.53303C1.09245 4.45713 0.0474224 4.44448 0.00965038 4.48243C-0.128847 4.60893 1.25613 8.68206 2.06193 10.5542C3.56022 14.0201 4.34084 16.4109 4.74374 18.751C5.08369 20.775 5.13405 20.9267 6.04058 22.9254C6.8212 24.633 7.07301 25.3541 7.45073 26.9605C7.70254 28.0358 8.20617 29.8573 8.5713 31.0084C8.93643 32.1595 9.49042 33.9431 9.79259 34.993C10.2333 36.4982 10.5354 37.2699 11.3161 38.7372C12.1974 40.4196 12.3233 40.7358 12.7388 42.532C12.978 43.6072 13.4942 45.4161 13.872 46.5672C14.2371 47.7183 14.64 49.211 14.7407 49.894C14.8918 50.8933 15.0303 51.3361 15.4206 52.0444C15.748 52.6516 16.0753 53.5497 16.3775 54.7261C16.6419 55.7001 16.8685 56.5097 16.8937 56.535C16.9189 56.5603 17.3092 56.3706 17.7625 56.1176L18.5809 55.6622L18.7068 56.1302C18.7823 56.3959 18.9082 56.9271 18.9838 57.3066C19.0719 57.6988 19.1726 58.0656 19.223 58.1162C19.2734 58.1668 19.8651 57.8885 20.5576 57.4964C21.2375 57.0916 22.4588 56.4718 23.2646 56.1049C24.5866 55.5104 24.8762 55.4219 26.3241 55.2448L27.9357 55.055L29.3081 54.0178C30.5042 53.1197 30.9071 52.9046 32.1914 52.4366C33.0224 52.133 34.3318 51.5511 35.1124 51.1337C36.4596 50.4253 36.6107 50.3747 38.046 50.1723L39.5569 49.9699L41.0048 48.9833C42.3269 48.0725 42.5913 47.946 44.1525 47.478C45.0842 47.187 46.4188 46.8202 47.1113 46.6431C47.8038 46.466 48.937 46.0992 49.6294 45.8083C50.6997 45.3782 50.9389 45.3149 51.2536 45.4288C51.4551 45.492 51.8328 45.5553 52.0972 45.5553C52.3742 45.5553 52.5883 45.6185 52.5883 45.6818C52.5883 45.7577 52.8652 46.0992 53.2052 46.4407C54.2125 47.4527 55.5345 47.693 56.7558 47.0606C57.2594 46.8076 59.1858 45.1378 60.8855 43.4808C61.6409 42.7471 61.9557 42.5067 61.9935 42.6459C62.0313 42.7471 62.3208 43.0886 62.6482 43.4049C63.2651 44.0247 63.9199 44.2903 64.7886 44.2903C65.0656 44.2903 65.3048 44.3409 65.3048 44.4168C65.3048 44.6445 66.2239 45.5679 66.6898 45.8083C67.7096 46.3269 69.0191 46.2257 69.9508 45.5553C70.7314 44.986 71.0839 44.2271 71.7764 41.6339L72.4185 39.2558L73.9672 38.1047C74.8234 37.4596 75.5914 36.9157 75.6669 36.8777C75.7551 36.8524 76.0321 37.2446 76.2965 37.7758C77.5429 40.2045 77.9962 40.622 79.4567 40.6979C80.187 40.7358 80.187 40.7358 80.6151 41.3683C81.1439 42.1526 81.4461 42.355 82.3148 42.5447C83.2969 42.7471 84.2412 42.4308 85.1351 41.6213L85.7898 41.0141L86.092 41.343C86.5579 41.849 87.3007 42.1399 88.1569 42.1399C89.6174 42.1399 90.7883 41.2418 91.2416 39.7745C91.5815 38.6866 91.5689 38.421 91.0527 35.7013C90.8135 34.4111 90.6498 33.3359 90.6876 33.2979C90.7128 33.26 91.1157 33.4244 91.5689 33.6395C92.1229 33.9178 92.4251 34.1454 92.4755 34.3352C92.6014 34.8412 93.4953 36.4982 93.873 36.9663C94.3011 37.4849 95.4343 38.1174 96.3156 38.3324C96.7437 38.4336 97.0333 38.6107 97.2977 38.9143C97.7761 39.4456 98.9848 40.0654 99.9669 40.2551C101.868 40.6346 104.688 39.4456 107.521 37.0548L108.503 36.2326L109.032 36.4097C109.309 36.5109 109.788 36.5741 110.09 36.5615C110.606 36.5235 110.644 36.5488 110.996 37.0928C111.525 37.9529 112.406 38.4716 113.288 38.4716C114.446 38.4716 117.279 37.1434 122.026 34.3605C123.549 33.4624 125.123 32.5516 125.539 32.3113L126.269 31.8938L126.772 32.3492C127.415 32.9184 128.183 33.2726 128.8 33.2853C129.215 33.2853 129.354 33.3738 129.87 33.9304C130.197 34.2846 130.688 34.6894 130.965 34.8285C131.582 35.1448 132.841 35.2586 133.597 35.0689C134.805 34.7653 137.613 32.9437 141.667 29.8193C146.489 26.113 146.968 25.5565 146.943 23.5452C146.943 22.2929 146.666 21.5845 145.872 20.775C145.243 20.1045 144.739 19.8642 143.845 19.7883C143.442 19.7503 143.115 19.6618 143.115 19.5986C143.115 19.5353 142.838 19.2064 142.511 18.8775C141.466 17.8276 140.194 17.5999 138.948 18.2324C138.381 18.536 137.298 19.2823 135.309 20.7876L133.987 21.7869L133.899 21.2556C133.848 20.9647 133.609 19.1179 133.357 17.1699C132.703 11.9836 132.489 10.9716 131.872 10.1241C131.494 9.59282 130.713 9.22599 129.832 9.15009C129.039 9.08684 129.026 9.08684 128.661 8.49232C128.12 7.6195 127.389 7.29062 125.992 7.30327C124.72 7.30327 124.116 7.55626 123.448 8.37847L123.02 8.8971L122.68 8.44172C122.492 8.18873 122.064 7.83455 121.736 7.6448C121.245 7.35387 120.993 7.29062 120.263 7.29062C119.394 7.29062 119.331 7.31592 116.108 8.85915C114.308 9.71932 112.306 10.706 111.664 11.0475C110.593 11.6294 110.468 11.6673 110.279 11.4776C109.939 11.174 108.994 10.7945 108.302 10.6933C107.962 10.6427 107.496 10.5289 107.269 10.4403C107.043 10.3391 106.577 10.2632 106.237 10.2632C105.733 10.2632 105.595 10.2126 105.532 10.0229C105.406 9.60547 104.474 8.77061 103.895 8.54292C102.989 8.20138 101.994 8.34052 101.125 8.9224C100.105 9.59282 98.4938 11.1867 97.5495 12.4516L96.7437 13.5268L96.1771 13.16C95.8749 12.9702 95.2958 12.7299 94.9055 12.654C94.3389 12.5275 94.0745 12.3884 93.5709 11.895C92.0852 10.453 90.0832 10.2759 87.0237 11.2879C84.4678 12.148 81.1187 14.0834 78.7139 16.1073C77.3541 17.2331 76.0069 18.6625 76.0069 18.9661C75.9943 19.2697 75.1255 18.2451 75.1255 17.9162C75.1255 17.4228 74.5212 16.3856 73.9924 15.9302C73.4384 15.4495 72.4689 15.1206 71.9023 15.2345C71.6631 15.2724 71.5498 15.2218 71.4113 14.9562C71.1973 14.5261 70.5048 13.881 70.0263 13.6407C69.359 13.3244 68.7421 13.2738 67.9992 13.4889C66.6898 13.8683 65.8084 15.1712 65.8084 16.7271C65.8084 17.0687 65.7707 17.3469 65.7203 17.3469C65.6574 17.3469 65.4307 17.056 65.1915 16.7145C64.4612 15.6266 63.391 14.8424 62.2201 14.5388C61.8046 14.4376 61.3765 14.1972 60.9862 13.843C59.8153 12.8184 58.2415 12.2872 56.995 12.5148C56.2647 12.654 56.2773 12.7046 56.5669 11.3764C56.718 10.6554 56.7558 9.80786 56.718 7.41711C56.7054 5.74738 56.7306 3.91321 56.7935 3.33133L56.8943 2.29407H55.5471H54.1999L54.288 1.40861L54.3761 0.523148H52.8023C51.9461 0.523148 50.9011 0.497849 50.4982 0.47255C50.0072 0.434602 49.0125 0.535798 47.6149 0.788787ZM23.3024 9.46633C23.4157 11.1993 23.5542 12.7678 23.5794 12.9576C23.6423 13.2865 23.6675 13.2991 23.869 13.122C23.9949 13.0082 24.1334 12.9196 24.1837 12.9196C24.4355 12.9196 26.3619 11.9836 26.6767 11.7053C26.9537 11.4776 27.1929 11.4017 27.621 11.4017C28.0742 11.4017 28.2757 11.3258 28.6156 11.0349C28.9682 10.7186 29.1067 10.6807 29.5348 10.7313C29.8747 10.7819 30.1391 10.7439 30.3406 10.6048C30.605 10.4403 30.7309 10.4403 31.7129 10.6427C32.3047 10.7692 32.9846 10.959 33.2112 11.0602C33.7149 11.2752 34.357 11.9077 34.4829 12.3125C34.7599 13.3118 34.4073 15.5634 33.8282 16.4362C33.5638 16.8283 33.4756 17.094 33.526 17.2711C33.6771 17.7517 33.6393 17.9162 33.3623 17.9541C33.1231 17.9921 33.0979 18.03 33.2238 18.2957C33.3371 18.5613 33.3119 18.6372 32.9594 18.9281C32.7454 19.1179 32.4558 19.4215 32.3173 19.6239L32.0655 19.9907L32.909 19.5227C34.1933 18.8143 35.3013 18.3463 36.2708 18.0806C37.2654 17.8276 38.9022 17.777 39.6325 17.9921C40.2872 18.1945 40.9923 18.8016 41.2692 19.4215C41.5588 20.0539 41.584 21.6984 41.3322 22.9001C41.2441 23.3428 41.1937 23.8108 41.2189 23.9373C41.2567 24.0512 41.1307 24.3674 40.9545 24.633C40.7782 24.8987 40.6271 25.2276 40.6271 25.3667C40.6271 25.5059 40.5642 25.9739 40.4886 26.4166C40.3627 27.1629 40.3375 27.2009 40.0857 27.0744C39.8465 26.9352 39.8465 26.9479 40.1109 27.3274L40.3879 27.7195L39.9724 27.9725C39.7458 28.1116 39.5191 28.2255 39.4688 28.2255C39.4184 28.2255 39.4058 28.3014 39.4436 28.4026C39.4814 28.5038 39.3429 28.6935 39.1288 28.858C38.8518 29.0477 38.7385 29.2248 38.7385 29.4904C38.7385 30.1229 38.5245 30.4644 37.5802 31.274C37.0262 31.7547 36.6737 32.1595 36.6611 32.3113C36.6611 32.4884 36.3967 32.7287 35.8175 33.0829C34.8354 33.6901 34.0044 34.4617 33.9037 34.8665C33.8408 35.0942 33.7023 35.1827 33.3245 35.2459C33.0475 35.2965 32.8209 35.3977 32.8209 35.4863C32.8209 35.7519 32.2795 36.1567 31.7885 36.2453C31.3478 36.3212 31.0204 36.7133 31.2974 36.8018C31.5241 36.8777 30.9449 37.5735 30.4916 37.7632C30.265 37.8644 30.0384 38.0035 30.0006 38.0794C29.9377 38.1806 29.8369 38.1806 29.6481 38.0794C29.3963 37.9403 29.3837 37.9276 29.5977 37.7758C29.7992 37.624 29.7992 37.5987 29.6103 37.4849C29.4088 37.3837 29.4088 37.3584 29.5977 37.1687C29.711 37.0548 29.7992 36.9283 29.7992 36.8904C29.774 36.7639 30.328 36.3718 30.6553 36.2706C30.8064 36.22 30.9323 36.1061 30.9323 36.0176C30.9323 35.9164 31.1338 35.6254 31.373 35.3598C31.6122 35.0942 31.8137 34.7906 31.8137 34.6894C31.8137 34.5755 32.1032 34.3478 32.481 34.1707C32.9342 33.9431 33.1231 33.7786 33.0979 33.6268C33.0727 33.5003 33.2616 33.2853 33.5764 33.0829C33.8533 32.8931 34.08 32.6781 34.0674 32.6022C34.017 32.1595 34.4703 31.6156 35.0621 31.4132C35.2887 31.3373 35.5657 31.1855 35.6664 31.0716C35.8553 30.8945 35.8427 30.8439 35.6664 30.5656C35.5531 30.3886 35.4901 30.2494 35.5279 30.2494C35.5657 30.2494 35.616 30.2494 35.6538 30.2494C35.6916 30.2494 35.8175 30.1482 35.9434 30.0217C36.1323 29.8446 36.1448 29.7814 36.0064 29.7055C35.8679 29.6169 35.8679 29.5537 35.9812 29.4145C36.0567 29.3133 36.0819 29.2375 36.0315 29.2375C35.9686 29.2375 36.0189 29.1363 36.1197 29.0098C36.2204 28.8959 36.3463 28.6935 36.3841 28.5797C36.4344 28.4405 36.5352 28.3899 36.6611 28.4279C36.787 28.4785 36.8499 28.4279 36.8499 28.2381C36.8499 28.061 36.9255 27.9725 37.0766 27.9725C37.3913 27.9725 37.9327 27.4665 37.7439 27.34C37.5424 27.2262 37.618 26.0118 37.832 25.9992C37.9075 25.9865 38.0964 25.9739 38.2349 25.9612C38.5245 25.9486 38.5623 25.645 38.3104 25.2023C38.1719 24.9619 38.1719 24.8101 38.2727 24.5698C38.3608 24.3801 38.4489 24.2156 38.4993 24.1777C38.6504 24.0638 38.7763 23.5072 38.6378 23.5958C38.5623 23.6337 38.4615 23.6084 38.4112 23.5325C38.3734 23.4566 38.3986 23.3428 38.4867 23.2922C38.5874 23.229 38.6126 23.0772 38.5748 22.9001C38.5371 22.7483 38.5874 22.4573 38.6882 22.2676C38.877 21.9008 38.877 21.6857 38.7008 21.749C38.6504 21.7616 38.6504 21.6225 38.6882 21.4454C38.7637 21.1544 38.7385 21.1291 38.5119 21.1924C38.323 21.2556 38.2349 21.2177 38.1719 21.0279C38.1342 20.8888 37.9831 20.737 37.8446 20.6991C37.7187 20.6485 37.6054 20.5599 37.6054 20.4967C37.6054 20.4334 37.4417 20.3955 37.2276 20.4081C36.9758 20.4208 36.8499 20.5093 36.8499 20.6358C36.8499 20.9014 36.5981 21.1418 36.3211 21.1418C36.1952 21.1418 36.0945 21.1924 36.0945 21.2683C36.0945 21.3315 35.9308 21.3948 35.7294 21.3948C35.5153 21.3948 35.3139 21.4454 35.2761 21.5213C35.2383 21.5845 34.9361 21.6478 34.6088 21.6478C34.0674 21.6478 34.0044 21.6857 33.8408 22.0526C33.6771 22.4194 33.6519 22.432 33.4882 22.217C33.3623 22.0273 33.2868 22.0146 33.1735 22.1284C33.0853 22.217 32.8965 22.2802 32.7328 22.2802C32.5313 22.2802 32.4432 22.3561 32.4432 22.5332C32.4432 22.6724 32.3802 22.7862 32.3047 22.7862C32.2292 22.7862 32.0529 22.938 31.9144 23.1151C31.7633 23.2922 31.587 23.406 31.4863 23.3681C31.3856 23.3301 31.2219 23.2543 31.1212 23.2163C30.9953 23.1657 30.9323 23.2163 30.9323 23.3428C30.9323 23.4566 30.8316 23.5452 30.7183 23.5452C30.605 23.5452 30.4035 23.6464 30.2776 23.7602C30.1517 23.8741 29.9251 23.9753 29.7614 24.0006C29.6103 24.0132 29.4718 24.0385 29.4592 24.0512C29.4088 24.0891 29.2074 24.1397 29.0437 24.165C28.9682 24.165 28.9178 24.2536 28.9304 24.3295C28.9682 24.671 28.9052 24.7722 28.3512 25.1896C28.0239 25.4426 27.5958 25.6324 27.3314 25.6577C27.0796 25.6829 26.7648 25.7588 26.6515 25.8221C26.5256 25.8853 26.0849 26.6064 25.6568 27.4286L24.8888 28.9212L25.405 34.2972C25.6946 37.2572 25.9464 40.2298 25.9716 40.9003C25.9842 41.5833 26.0345 42.1905 26.0723 42.2538C26.1227 42.317 26.1856 42.6459 26.2108 42.9874C26.2486 43.3163 26.3115 43.759 26.3493 43.9614C26.3997 44.1765 26.3367 44.4674 26.1982 44.7331C25.959 45.2011 26.0345 45.6312 26.3493 45.5047C26.5004 45.4414 26.5382 45.4794 26.4626 45.6438C26.236 46.2004 26.173 46.6937 26.3367 46.7949C26.4123 46.8455 26.5256 47.0479 26.5759 47.2376C26.6515 47.5665 26.6263 47.5918 26.3745 47.5539C26.1856 47.5286 26.0849 47.4274 26.0849 47.2629C26.0849 47.0985 25.9968 47.01 25.8331 47.01C25.3043 47.01 25.1784 46.504 25.4554 45.4288C25.5057 45.2011 25.4554 45.0366 25.2791 44.8342C24.914 44.4421 24.9518 44.2018 25.3924 44.1006C25.8205 43.9994 25.7827 43.7843 25.3295 43.7843C24.8384 43.7843 24.6496 43.4934 24.7629 42.8862C24.8384 42.4688 24.8133 42.2791 24.6118 41.9375C24.3726 41.5327 24.3726 41.5201 24.5992 41.2797C24.914 40.9509 24.9392 40.7485 24.6748 40.5587C24.5111 40.4322 24.4607 40.2045 24.4607 39.4962C24.4481 38.8257 24.4104 38.5854 24.2593 38.5222C24.0956 38.4716 24.1082 38.421 24.3096 38.2692C24.5489 38.0921 24.5489 38.0921 24.2844 38.0921C24.1334 38.0921 24.0075 38.0541 23.9949 37.9909C23.9949 37.9403 23.9823 37.662 23.9697 37.3584C23.9697 37.0675 23.9067 36.8271 23.8564 36.8271C23.806 36.8271 23.7556 36.6627 23.7556 36.4603C23.7556 36.2453 23.6927 36.0429 23.6171 35.9923C23.5416 35.9543 23.4912 35.6128 23.5164 35.1953C23.5416 34.74 23.4786 34.3099 23.3276 33.981C23.1135 33.4877 23.1261 33.475 23.4031 33.26C23.7179 33.0323 23.6297 32.8425 23.2016 32.754C22.9624 32.7161 22.8995 32.4631 22.8491 31.4132C22.8365 31.0843 22.7736 31.0084 22.5469 31.0084C22.3329 31.0084 22.2448 31.1096 22.1566 31.4764C22.0937 31.742 22.0055 31.9444 21.9552 31.9318C21.9048 31.9191 21.376 31.7926 20.7968 31.6282L19.7266 31.3499V30.8945C19.7266 30.6415 19.6889 30.3127 19.6511 30.1482C19.5755 29.8826 19.6007 29.8573 19.9281 29.8952C20.268 29.9332 20.3058 29.8952 20.4065 29.4019C20.5072 28.9718 20.5828 28.8706 20.8724 28.8074C21.1997 28.7441 21.2123 28.7188 21.1116 28.3267C21.0109 27.9852 21.0361 27.8713 21.2501 27.6436C21.4012 27.4918 21.6782 27.2894 21.8922 27.2009C22.2196 27.0617 22.2573 26.9985 22.1944 26.657C22.1566 26.4419 21.93 24.8987 21.6782 23.229C21.439 21.5592 21.1746 19.9654 21.099 19.6871C21.0361 19.4088 20.9479 18.751 20.9101 18.2324C20.8724 17.7138 20.8346 17.2837 20.822 17.2584C20.8094 17.2458 20.5198 17.3975 20.2051 17.5999L19.6133 17.9668L19.3489 17.6379C18.9964 17.1825 19.0341 16.9928 19.5378 16.7018C19.8148 16.5374 20.0036 16.3097 20.054 16.0947C20.0918 15.9176 20.1673 15.6519 20.2177 15.5128C20.268 15.3736 20.268 15.0574 20.2051 14.8171C20.1547 14.5767 20.0792 14.0834 20.054 13.7418C19.8651 11.6041 19.7644 10.6807 19.6889 10.5668C19.6511 10.4909 19.5504 10.0988 19.4874 9.68137C19.4119 9.27659 19.2734 8.56821 19.1726 8.11283C19.0845 7.65745 19.0215 7.26532 19.0593 7.22737C19.1349 7.15147 22.484 6.36721 22.8239 6.35456C23.0757 6.34191 23.0883 6.4431 23.3024 9.46633ZM121.27 9.15009C121.749 9.52957 122.089 10.3265 122.089 11.1234C122.089 12.4769 121.711 12.8184 118.803 14.0581C117.594 14.5767 115.315 15.6519 113.741 16.4362C111.487 17.562 110.883 17.9162 110.933 18.0806C110.959 18.2071 111.059 19.0546 111.147 19.9654L111.299 21.6478L111.689 21.3442C111.903 21.1797 113.54 20.0539 115.328 18.8143C117.115 17.5873 118.941 16.3097 119.394 15.9682C120.389 15.2092 120.792 15.0953 121.421 15.4116C122.366 15.867 122.794 17.4987 122.227 18.4348C121.963 18.8775 119.105 20.737 116.234 22.3435C114.018 23.5831 111.79 24.924 111.701 25.0758C111.638 25.177 112.004 29.8826 112.092 29.9711C112.142 30.047 114.509 28.7568 117.468 27.0617C118.903 26.2395 121.396 24.8734 123.008 24.0259C124.607 23.1784 125.941 22.4826 125.954 22.47C125.979 22.4573 125.853 21.4833 125.69 20.3069C125.022 15.5507 124.443 10.3138 124.531 9.95966C124.582 9.75727 124.783 9.44103 124.985 9.23864C125.312 8.90975 125.425 8.8718 126.181 8.8718C127.654 8.8718 127.717 9.04889 128.447 14.8171C129.165 20.5979 130.071 25.898 130.386 26.2395C130.499 26.3534 132.249 25.1517 135.951 22.3941C139.527 19.7377 139.892 19.4974 140.458 19.4974C140.987 19.4974 141.617 19.9527 141.906 20.5473C142.158 21.0912 142.171 22.2929 141.932 22.7609C141.403 23.7729 133.534 29.7687 130.864 31.1855C129.442 31.9318 128.346 31.742 127.717 30.6542C127.578 30.4139 127.276 29.3386 127.037 28.2508C126.798 27.1629 126.584 26.2522 126.558 26.2269C126.508 26.1636 122.303 28.5038 119.885 29.9332C114.723 32.9817 111.727 34.5502 110.53 34.8159C109.926 34.955 109.838 34.955 109.523 34.7147C109.02 34.3352 108.881 33.728 108.717 31.2108C108.642 29.9458 108.566 28.9086 108.554 28.8833C108.541 28.8706 107.886 29.5157 107.093 30.3253C103.366 34.1328 100.357 36.3085 98.2546 36.7259C97.3229 36.903 96.3786 36.7133 95.6735 36.1947C95.0691 35.7519 94.3893 34.5882 93.9864 33.3232L93.7094 32.4125L89.5418 30.4897C87.2629 29.4272 85.3492 28.5417 85.2988 28.5164C85.261 28.4911 85.2484 28.5797 85.2736 28.6935C85.5884 30.1103 86.583 36.1188 86.583 36.5994C86.583 37.7885 85.9157 38.5981 84.9211 38.5981C84.4552 38.5981 83.8131 38.1806 83.5613 37.7126C83.4983 37.5861 83.2969 36.3465 83.1206 34.9677C82.7303 31.9065 81.9245 26.404 81.8615 26.3407C81.7986 26.2901 80.1114 27.3527 78.7516 28.314L77.7948 28.9845L78.5502 30.4644C78.9657 31.2867 79.8219 32.8805 80.4388 34.0063C81.0557 35.1321 81.5971 36.2579 81.6349 36.5109C81.786 37.4596 80.8543 38.8257 79.9226 39.0408C79.0916 39.2179 78.9909 39.0914 76.9008 34.9044L74.9745 31.021L74.0679 31.6914C73.5769 32.0583 71.9527 33.2726 70.467 34.3858L67.76 36.4097L67.1557 38.7372C66.8283 40.0148 66.4632 41.2797 66.3498 41.5454C65.9469 42.4688 65.0782 42.8483 64.2346 42.4435C63.5421 42.1146 63.4792 41.8743 63.6554 40.1539L63.8191 38.674L63.4918 38.4336C63.0259 38.1047 62.7867 37.5735 62.7867 36.9283C62.7993 36.1061 62.9881 35.8658 64.6627 34.5376C64.8767 34.3605 65.053 33.9431 65.3174 33.007C65.9469 30.7301 67.1808 21.9514 67.5208 17.3469C67.5586 16.6892 67.6719 15.9682 67.76 15.7405C67.9363 15.3104 68.5029 14.9435 68.9939 14.9435C69.6486 14.9435 70.3411 15.8164 70.3411 16.6386C70.3411 16.9169 70.4292 17.1446 70.5677 17.2458C70.9203 17.4987 71.8771 18.9787 73.9294 22.47C74.9493 24.203 75.8558 25.7082 75.9439 25.7968C76.0698 25.9359 76.5609 25.6703 78.6635 24.3042C80.0737 23.3807 81.2572 22.6091 81.2698 22.5965C81.295 22.5712 81.2446 22.1284 81.1691 21.5972L81.0054 20.6358L80.5143 21.0532C79.2553 22.0778 78.9153 22.2043 78.2984 21.8502C77.7948 21.5719 77.5178 21.0153 77.5178 20.2563V19.5733L78.6257 18.4854C82.0756 15.07 87.3511 12.2872 90.3602 12.2872C91.4808 12.2872 91.9089 12.4137 92.4251 12.8943C93.0295 13.4636 93.2561 14.1213 93.2561 15.3104C93.2561 16.6512 93.0043 17.6379 92.274 19.0546C91.443 20.6611 90.4736 21.8881 88.6605 23.6464L87.0867 25.1643L88.1191 25.7715C89.2271 26.404 93.168 28.4785 93.2813 28.4785C93.319 28.4785 93.3946 28.099 93.4324 27.6183C93.9864 22.0652 96.7689 15.5887 100.131 12.0468C102.271 9.78256 103.366 9.42838 104.223 10.7313C104.474 11.1108 104.55 12.148 104.348 12.5148C104.286 12.6287 103.706 13.2738 103.052 13.9316C102.41 14.5894 101.503 15.6772 101.037 16.335C99.4003 18.6498 97.6628 22.6724 96.9577 25.7588C96.643 27.1376 96.6304 29.8952 96.9452 30.9072C97.4614 32.6022 98.7582 32.5643 101.138 30.7933C101.704 30.3633 103.517 28.7062 105.192 27.087L108.226 24.165L108.151 22.8748C108.113 22.1664 108.05 21.1418 108 20.6105L107.924 19.6239L107.358 20.0033C106.439 20.6232 105.595 20.4714 105.154 19.6239C104.928 19.1811 104.915 18.1439 105.129 17.777C105.293 17.4987 106.514 16.3476 107.269 15.7784C107.71 15.4369 107.735 15.3863 107.735 14.6653C107.735 13.7798 107.975 13.2485 108.491 12.9829C109.083 12.6793 109.473 12.7425 109.951 13.2232L110.392 13.666L111.173 13.1979C111.601 12.9449 113.452 12.0089 115.29 11.1234C117.128 10.2253 118.916 9.36513 119.256 9.18804C120.062 8.79591 120.804 8.78326 121.27 9.15009ZM58.7955 14.2605C59.7272 14.5767 60.5581 15.4242 61.1751 16.6765C61.6661 17.6758 61.7165 17.8403 61.7543 18.9787C61.8172 20.3702 61.6661 21.2809 61.2254 22.2296L60.9233 22.8874L62.1446 22.938C63.1266 22.976 63.4414 23.0392 63.8065 23.2669C65.0908 24.0512 65.5315 27.0111 64.6879 29.2122C64.0835 30.8439 62.1068 33.9937 60.2056 36.3591C58.0148 39.0914 53.2933 43.6705 52.4623 43.8476C51.9587 43.9614 51.2285 43.5946 50.8633 43.038C50.5486 42.57 50.4856 41.7984 50.7122 41.343C50.7878 41.1912 51.8328 40.0907 53.0163 38.9143C55.9877 35.967 57.8512 33.6901 59.9664 30.4265C61.578 27.9472 62.2075 26.5305 61.8046 26.2775C61.5654 26.1383 60.3441 26.5305 58.9465 27.2009C57.2468 28.0231 55.0686 29.4525 53.0415 31.0716L51.6691 32.1721L51.7573 33.2094C52.135 38.13 51.9713 39.142 50.6871 39.4835C50.0827 39.648 49.5035 39.4329 49.0251 38.8637C48.5592 38.3071 48.4711 37.8264 48.383 35.5622C48.2948 33.3106 48.2067 32.4378 47.6653 27.884L47.2624 24.5698L46.8343 24.9366C45.8648 25.7968 44.6561 25.0505 44.6561 23.5831C44.6561 22.8748 44.7569 22.7103 45.9152 21.3948L46.7588 20.4461L46.6455 19.1685C46.5321 18.0553 46.5447 17.8403 46.7336 17.4355C47.275 16.297 48.7859 16.4362 49.1888 17.6758C49.2769 17.9162 49.3776 18.1059 49.428 18.1059C49.4784 18.1059 50.1583 17.6758 50.9515 17.1446C52.8778 15.8543 55.2197 14.6779 56.7432 14.2478C57.5238 14.0201 58.103 14.0201 58.7955 14.2605Z" fill="#0064DF"/>
<path d="M30.7057 13.4889C30.542 13.6913 30.3783 13.7799 30.2524 13.7293C30.1139 13.6787 30.051 13.7166 30.051 13.8558C30.051 13.9696 29.9377 14.0708 29.774 14.0835C29.6103 14.0961 29.3963 14.1088 29.2955 14.1214C29.1948 14.1214 29.0437 14.172 28.9682 14.2099C28.9052 14.2605 28.6157 14.2479 28.3387 14.1846C27.6839 14.0202 27.2936 14.1973 26.9033 14.8171C26.7396 15.0954 26.5382 15.3231 26.4501 15.3231C26.3619 15.3231 26.2738 15.3863 26.2486 15.4749C26.2234 15.5508 25.9464 15.614 25.6065 15.614C25.2791 15.614 25.0147 15.6646 25.0147 15.7279C25.0147 15.7785 24.8762 15.8291 24.7125 15.8291C24.4985 15.8291 24.3978 15.9176 24.36 16.1453C24.3222 16.3224 24.3474 16.4995 24.4104 16.5375C24.5992 16.6513 24.3726 16.8663 24.1208 16.8031C23.9571 16.7525 23.8816 16.8031 23.8816 16.9422C23.869 17.4103 24.4104 23.7476 24.4607 23.9247C24.5237 24.0765 24.5615 24.0639 24.7125 23.8615C25.3547 22.9634 26.4626 21.5846 27.2181 20.7497C27.9232 19.9528 28.1876 19.7378 28.6282 19.6366C29.1319 19.4974 29.1696 19.4595 29.1696 19.0547C29.1696 18.827 29.22 18.5993 29.2955 18.5487C29.3585 18.5108 29.3837 18.3969 29.3459 18.2957C29.2578 18.0933 29.9125 17.7644 30.0384 17.9542C30.0762 18.0174 30.2147 18.0933 30.328 18.1439C30.5546 18.2198 30.6805 18.0174 30.6805 17.5368C30.6805 17.3723 30.7561 17.2205 30.8316 17.1952C30.9449 17.1573 30.9323 17.0687 30.7687 16.9169C30.5672 16.7145 30.5672 16.6513 30.7309 16.411C30.8316 16.2718 30.9701 16.158 31.0456 16.1833C31.2471 16.2212 31.373 15.8417 31.2093 15.6773C31.0582 15.5255 31.159 15.0701 31.3604 15.0701C31.436 15.0575 31.6248 14.9563 31.7759 14.8298C31.9899 14.6527 32.0403 14.4882 32.0151 14.1341C31.9774 13.666 31.7381 13.2612 31.5619 13.3624C31.4989 13.4004 31.4234 13.3751 31.373 13.2992C31.2345 13.0841 30.9575 13.16 30.7057 13.4889Z" fill="#0064DF"/>
<path d="M89.227 16.1452C88.182 16.4994 84.0396 18.5233 83.813 18.8016C83.6997 18.9407 83.7249 19.3582 83.9389 20.5978C84.1026 21.4833 84.2411 22.2423 84.2663 22.2676C84.4677 22.4952 88.736 18.3968 89.8313 16.9168C90.7631 15.6772 90.7379 15.6519 89.227 16.1452Z" fill="#0064DF"/>
<path d="M69.9507 21.7743C69.9507 21.8123 69.7619 23.8741 69.5353 26.3534C69.2834 29.2502 69.1827 30.8313 69.2708 30.7807C69.7493 30.4772 73.111 27.8081 73.111 27.7322C73.111 27.6816 72.7962 27.0491 72.4059 26.3155C72.0156 25.5945 71.2979 24.2536 70.8321 23.3555C70.3536 22.4447 69.9633 21.7364 69.9507 21.7743Z" fill="#0064DF"/>
<path d="M56.1765 18.283C54.4012 18.7004 52.7015 19.5479 51.0269 20.8888C50.3722 21.42 50.1078 21.6983 50.133 21.8628C50.1708 21.9893 50.3848 23.4313 50.6366 25.0631C50.8884 26.6949 51.1276 28.1369 51.178 28.2634C51.2536 28.4531 51.3795 28.4025 52.0845 27.808C53.7591 26.4166 57.4482 22.0525 58.191 20.5852C58.5435 19.8894 58.6191 18.8142 58.3547 18.4474C58.1281 18.1438 57.1082 18.0679 56.1765 18.283Z" fill="#0064DF"/>
<path d="M143.694 10.6934C141.994 11.3258 141.466 13.4636 142.687 14.8044C143.266 15.4622 143.694 15.614 144.739 15.5508C145.482 15.5128 145.684 15.4496 146.086 15.1207C146.829 14.5262 147.043 14.0202 146.993 12.9576C146.955 12.1607 146.905 11.9963 146.565 11.5662C146.351 11.3005 145.998 10.9843 145.784 10.8578C145.255 10.5542 144.299 10.4657 143.694 10.6934ZM145.507 11.427C146.2 11.9077 146.452 12.3504 146.452 13.1094C146.452 13.8684 146.2 14.3111 145.507 14.7791C144.739 15.3104 143.543 15.0448 142.926 14.2099C142.561 13.7166 142.574 12.4896 142.951 11.9583C143.531 11.1487 144.727 10.9084 145.507 11.427Z" fill="#0064DF"/>
<path d="M143.367 13.1094V14.5641H143.808C144.236 14.5641 144.248 14.5514 144.248 14.0581C144.248 13.7419 144.311 13.5521 144.412 13.5521C144.702 13.5521 144.853 13.7419 144.903 14.1214C144.941 14.4502 145.004 14.5008 145.356 14.5388C145.734 14.5767 145.759 14.5641 145.759 14.1593C145.759 13.919 145.671 13.6154 145.57 13.4636C145.407 13.2359 145.407 13.1853 145.57 13.0462C145.772 12.8817 145.822 12.3251 145.658 12.0848C145.47 11.7939 144.991 11.6547 144.198 11.6547H143.367V13.1094Z" fill="#0064DF"/>
</svg>
