<svg width="83" height="45" viewBox="0 0 83 45" fill="none" xmlns="http://www.w3.org/2000/svg">
<path d="M42.1425 0.666911C30.399 1.64553 16.5624 7.78911 7.78193 15.9987C-1.48781 24.6432 -2.60235 33.5052 5.1179 37.2022C5.87905 37.5556 6.85767 37.909 7.29261 38.0177C7.78193 38.0992 7.53727 37.9361 6.69457 37.5556C2.20921 35.5983 0.143229 32.2003 0.877196 28.014C3.18783 14.8841 28.2786 0.0416794 46.5735 0.993119C52.7714 1.31933 56.7403 3.19502 58.5888 6.67457C59.513 8.44153 59.4858 12.0842 58.48 14.4492C57.2568 17.3851 56.0335 19.1248 52.8258 22.4956C50.4064 25.0509 50.0802 25.4315 51.4394 24.2898C53.6685 22.3597 56.3869 19.1792 57.7461 16.9501C61.579 10.5075 60.4373 4.90761 54.7287 2.29795C51.5209 0.802831 47.1715 0.259151 42.1425 0.666911Z" fill="#0064DF"/>
<path d="M37.8747 1.9989C24.5274 4.3639 10.5548 12.6278 4.4656 21.7345C2.61709 24.48 1.91031 26.4101 1.77439 29.1013C1.69284 31.0314 1.74721 31.5207 2.34525 32.7983C2.69864 33.5867 3.4598 34.7284 4.03066 35.2721C5.11802 36.3866 7.78205 37.773 9.33153 38.072C10.1199 38.208 10.1742 38.2623 9.73929 38.4254C9.35872 38.5613 9.52182 38.6429 10.283 38.6157C10.881 38.6157 11.9956 38.6973 12.7839 38.8332L14.1703 39.0507L14.8771 37.9089C15.2576 37.3109 15.5838 36.7128 15.5838 36.6041C15.5838 36.4682 14.9314 36.2235 14.1431 36.0332C12.1043 35.5711 9.57619 34.2391 8.24418 32.9614C6.31411 31.0858 5.25394 28.0955 5.63451 25.5402L5.8248 24.3441L6.83061 24.48C7.37429 24.5616 7.97234 24.7247 8.16262 24.8878C8.3801 25.0509 8.67912 25.0509 9.03251 24.8606C9.84803 24.4257 10.9626 24.48 10.9626 24.9694C10.9626 25.214 10.7179 25.3771 10.3645 25.3771C9.9024 25.3771 9.84803 25.4587 10.0927 25.7033C10.3373 25.948 10.5276 25.8936 10.9626 25.513C11.3975 25.1325 11.5878 25.0781 11.8325 25.3228C12.0227 25.513 12.0499 25.649 11.8868 25.6761C11.7509 25.7033 12.4305 25.9208 13.4091 26.1655C14.5237 26.4645 15.312 26.546 15.5295 26.3829C15.6926 26.247 15.8557 26.2198 15.8557 26.3557C15.8557 26.4917 15.9916 26.4101 16.1547 26.1926C16.3722 25.8392 16.4809 25.8664 16.8615 26.3829C17.2964 27.0353 18.1391 27.1984 18.4382 26.7363C18.5197 26.5732 18.9547 26.4645 19.3896 26.4645C19.8245 26.4645 20.2867 26.2742 20.4226 26.0295C20.6129 25.6761 20.776 25.649 21.2109 25.8936C21.51 26.0295 21.8362 26.1111 21.9177 26.0295C21.9993 25.9208 23.1954 25.8392 24.5546 25.7849C27.3273 25.7305 28.2244 25.3771 25.7507 25.3499C24.0652 25.3499 23.3585 25.1596 23.2769 24.6975C23.2497 24.5344 23.141 24.181 23.0594 23.882C22.8963 23.4199 22.9235 23.4199 23.1954 23.7461C23.44 24.0723 23.4672 23.7189 23.3585 22.251C23.2769 21.1908 23.1954 20.0491 23.1954 19.6685C23.1682 19.0161 23.1682 19.0161 22.7876 19.5054C22.3798 20.0491 22.3798 20.0491 22.3255 19.5054C22.3255 19.2335 22.2711 18.6899 22.2439 18.3093C22.2167 17.9287 22.1352 16.9229 22.108 16.0802C22.0265 14.5307 21.7546 14.2589 21.1022 15.0472C20.8304 15.3734 20.8032 15.1831 20.9119 14.0958C21.075 12.7638 21.6459 11.921 22.1624 12.2201C22.2983 12.3288 22.1624 12.655 21.8633 12.9812C21.1022 13.7696 21.1294 14.123 21.8905 13.4162C22.6245 12.7366 22.9235 12.954 22.2439 13.688C21.8905 14.0686 21.8633 14.2045 22.1352 14.0958C22.3527 14.0142 22.8692 13.4162 23.2769 12.7366C23.7119 12.057 24.5002 11.1327 25.0439 10.6978C26.3215 9.6376 25.9138 9.66478 23.44 10.8065C20.7216 12.0298 20.2051 12.1929 20.2051 11.7036C20.2051 11.4861 20.4498 11.1055 20.7488 10.8337C21.6187 10.0454 21.1837 10.0454 19.9605 10.8065C19.3624 11.1871 18.7372 11.5133 18.5741 11.5133C18.411 11.5133 18.3566 11.6764 18.4654 11.8395C18.6013 12.0842 18.5197 12.0842 18.2207 11.8123C17.7314 11.4046 17.5955 11.1055 18.0304 11.3774C18.1935 11.4589 18.3022 11.3502 18.3022 11.1055C18.3022 10.7793 18.1663 10.6978 17.8673 10.8065C17.4595 10.9696 17.4595 10.9152 17.8129 10.3716C18.3022 9.6376 22.1896 7.51724 25.2342 6.32115C26.4303 5.85902 28.8224 5.09787 30.535 4.63574C33.4437 3.87459 33.9874 3.79304 38.5543 3.79304C42.9581 3.76586 43.6377 3.82022 45.4862 4.41827C48.1503 5.23379 49.3735 5.88621 50.8143 7.21822C52.3366 8.6046 53.3696 10.7521 53.5599 12.8181C53.723 14.5035 53.5055 16.4064 53.1521 16.4064C52.5269 16.3792 52.1735 15.754 52.0647 14.3948C52.0104 13.5521 51.8473 12.8725 51.7114 12.8725C51.5754 12.8725 51.4939 12.954 51.5211 13.0628C51.6298 13.6336 51.0861 15.319 50.7871 15.319C50.2978 15.319 50.1075 14.6938 50.0803 12.9269C50.0531 10.8337 49.6997 8.55024 49.4823 9.06673C49.4007 9.2842 49.2648 10.0182 49.1832 10.6978C48.9114 13.0356 48.6939 13.688 48.2318 13.688C47.5794 13.688 46.5464 12.9269 43.8824 10.4803C42.5504 9.25702 41.3543 8.25121 41.2183 8.25121C41.1096 8.25121 40.6747 8.84926 40.2669 9.55604C39.8591 10.2628 39.2883 11.0783 38.9893 11.3502C38.663 11.6492 38.4184 12.0842 38.4184 12.356C38.4184 12.6278 38.1194 13.1715 37.7388 13.5793C37.3582 13.987 37.0592 14.4763 37.0592 14.6938C37.0592 14.9113 36.8689 15.4278 36.6514 15.8627C36.1893 16.787 36.0262 16.7054 38.6902 16.8413C39.3698 16.8685 40.2397 16.9773 40.6475 17.086C41.164 17.2219 41.5174 17.1404 41.8436 16.8413C42.0882 16.5695 42.4688 16.4336 42.6591 16.5151C42.8766 16.5967 43.0397 16.5423 43.0397 16.3792C43.0397 15.8084 43.9639 16.2977 44.127 16.9501C44.2086 17.3307 44.426 17.6297 44.5892 17.6297C45.1328 17.6297 45.2416 17.9559 44.9154 18.6627C44.4804 19.6141 44.2358 19.3966 43.9911 17.8472L43.7736 16.5423L43.529 17.6841C43.2843 18.853 42.795 19.2607 42.7135 18.3637C42.7135 18.119 42.6591 17.7656 42.6319 17.6297C42.5775 17.4666 42.5504 17.1676 42.5232 16.9501C42.496 16.5967 42.4416 16.5967 42.2513 16.9501C41.4902 18.2821 41.5717 18.4452 43.8552 19.6685C45.0513 20.3209 46.0299 20.9189 46.0299 21.0277C46.0299 21.1364 45.894 21.6257 45.7309 22.0879C45.4862 22.7403 45.3503 22.8762 45.1872 22.6044C45.0241 22.3869 44.9425 22.6315 44.9697 23.3383C45.0241 25.1053 45.1872 25.4315 45.8668 25.2684C46.193 25.1868 46.7367 25.1868 47.0629 25.2956L47.6881 25.4587L46.9542 26.2198L46.193 27.0082H46.8726C47.2532 27.0082 47.8512 26.7091 48.2046 26.3286C48.993 25.4859 49.5638 25.4315 48.857 26.247L48.3405 26.8722L48.9658 26.3557C49.292 26.0567 49.5094 25.7577 49.4279 25.7033C49.3463 25.6218 50.4337 24.3713 51.8201 22.9577C54.7288 19.9947 56.387 17.6569 57.5559 14.9113C58.2355 13.3074 58.3714 12.655 58.3986 10.6978C58.3986 8.63179 58.3171 8.22403 57.6103 6.94638C55.5171 3.19499 51.2492 1.45522 44.2629 1.4824C42.0882 1.4824 39.6417 1.69987 37.8747 1.9989Z" fill="#0064DF"/>
<path d="M27.6262 10.3172C27.8708 10.725 27.4903 11.1871 26.4573 11.6492L25.5058 12.0842L26.4029 11.9483L27.3 11.7852L26.5388 12.4376C26.1311 12.7638 25.533 13.1987 25.234 13.3618C24.3913 13.8511 25.2884 13.7424 26.267 13.2531L27.1369 12.8181L26.3214 13.7152C25.8864 14.2317 25.4243 14.6667 25.3156 14.721C25.1796 14.7754 25.0981 15.0744 25.0981 15.4006C25.0981 15.8356 25.2612 15.9987 25.7777 16.0259C26.1583 16.053 26.3757 15.9715 26.2942 15.8356C26.2126 15.6997 26.3214 15.5909 26.5388 15.5909C26.7291 15.5909 27.7893 14.9113 28.8767 14.0958C30.0456 13.2531 31.7038 12.3288 32.8183 11.9211C33.8785 11.5133 34.9931 11.0784 35.2921 10.9696C36.1348 10.5891 34.4494 10.9425 33.1174 11.4318C32.0844 11.7852 31.8941 11.7852 30.263 11.1599C29.2844 10.8065 28.2514 10.3988 27.9796 10.29C27.6534 10.1541 27.5175 10.1541 27.6262 10.3172Z" fill="#0064DF"/>
<path d="M33.4707 12.6007C32.7368 13.0628 32.0572 13.4162 31.8941 13.4162C31.7582 13.4162 31.6222 13.525 31.6222 13.6609C31.6222 13.8783 30.8611 14.1774 29.7737 14.3948C29.5563 14.422 29.3116 14.5579 29.23 14.6667C29.1213 14.7754 29.2572 14.7754 29.5291 14.6939C29.7737 14.5851 29.9912 14.6395 29.9912 14.7754C29.9912 14.9385 29.5834 15.0473 29.1213 15.0473C28.4961 15.0473 28.333 15.1288 28.6048 15.2919C28.8767 15.455 28.7679 15.5909 28.1971 15.8356C27.4087 16.1346 27.4087 16.1346 28.3602 15.9987C28.8767 15.9171 29.5563 15.8084 29.8553 15.7812C30.1543 15.754 30.6436 15.5909 30.9155 15.4278C31.1873 15.2647 31.6494 15.1832 31.8941 15.2375C32.1659 15.3191 32.4649 15.2375 32.5465 15.0744C32.6824 14.8841 32.5737 14.857 32.2475 14.9657C31.7853 15.1016 31.7853 15.1016 32.2747 14.6123C32.628 14.2317 32.8183 14.2046 32.8999 14.422C32.9814 14.6667 33.1717 14.6939 33.5523 14.5036C34.2591 14.0958 34.2319 14.6667 33.5251 15.1016C33.2261 15.2919 32.9814 15.5366 32.9814 15.6725C32.9814 15.9171 34.5037 15.1016 35.1562 14.5036C35.3736 14.2861 36.1076 13.6337 36.7872 13.0628C38.0648 11.9755 38.0648 11.8939 36.8687 12.356C35.1833 13.0356 33.8241 12.8182 35.1018 12.0842C35.4552 11.8667 35.4824 11.8124 35.1562 11.7852C34.9387 11.7852 34.1775 12.1658 33.4707 12.6007Z" fill="#0064DF"/>
<path d="M34.5037 21.9247C34.259 23.4742 33.9328 23.5558 33.5794 22.1694L33.3076 21.1636L33.2804 22.5228C33.226 23.8548 33.226 23.8548 32.8454 23.2024C32.5192 22.6587 32.2474 22.7674 32.5192 23.3655C32.5464 23.447 32.3561 23.6373 32.0571 23.8004C31.5406 24.0995 31.0785 23.7189 31.0785 22.9849C31.0785 22.7946 30.9426 22.7131 30.8066 22.7946C30.6435 22.9034 30.5348 23.1208 30.562 23.2839C30.7251 24.5888 30.2901 24.9422 29.7465 23.9364C29.4474 23.3383 29.4474 23.3383 29.5562 24.0179C29.6921 24.6431 29.6649 24.6431 29.3387 24.2082C28.9853 23.7733 28.9581 23.7733 28.8494 24.4257C28.6863 25.2684 29.0669 25.2956 31.6222 24.6703C33.1445 24.2898 35.1561 24.0995 37.9288 24.0451L38.6356 24.0179L38.2007 22.6587C37.7114 21.1364 37.3308 20.8918 37.3308 22.115C37.3308 23.148 36.8958 23.1752 36.6512 22.1694L36.4609 21.4354L36.1075 22.3053C35.89 22.7946 35.6726 23.2024 35.591 23.2024C35.5095 23.2024 35.2648 22.6315 35.0745 21.9247L34.6939 20.6199L34.5037 21.9247Z" fill="#0064DF"/>
<path d="M42.5775 21.8432C42.5775 22.5228 42.5503 23.3655 42.5231 23.7461L42.4688 24.4257L42.1697 23.7461C41.9794 23.3655 41.7076 22.6315 41.5173 22.115C41.2727 21.4083 41.1911 21.2995 41.1639 21.7616C41.1367 22.0879 41.028 22.4141 40.8649 22.5228C40.729 22.6044 40.6746 22.849 40.7562 23.0393C40.8377 23.2568 40.7834 23.4742 40.6746 23.5558C40.5387 23.6373 40.2669 23.148 40.0766 22.4412C39.7504 21.2723 39.696 21.218 39.4785 21.7888C39.3426 22.1422 39.3154 22.5772 39.4242 22.7403C39.5329 22.9306 39.397 22.9034 39.1523 22.6859C38.7446 22.3597 38.6902 22.3869 38.6902 22.7675C38.6902 23.0121 38.8261 23.2024 38.9892 23.2024C39.1523 23.2024 39.2067 23.4199 39.1251 23.6917C38.9892 24.0995 39.2339 24.2082 40.9465 24.5344C44.7794 25.214 44.7794 25.214 44.5891 24.7791C44.5076 24.5344 44.3445 23.8004 44.2629 23.0937C44.0454 21.7345 43.5833 21.3811 43.5561 22.5772C43.5561 23.2024 43.4474 23.0937 43.0668 21.9791L42.5775 20.6199V21.8432Z" fill="#0064DF"/>
<path d="M24.2011 28.6392C22.4613 29.7265 20.8303 31.276 19.2536 33.3148C18.5197 34.2663 18.2478 34.7556 18.6012 34.4022C19.009 34.0488 19.6342 33.8041 20.1507 33.8041C21.1565 33.8041 21.1837 33.8585 20.5856 34.7556C20.341 35.1362 20.2051 35.4352 20.2866 35.4352C20.341 35.4352 20.7216 34.9459 21.1021 34.375C21.5099 33.777 22.6788 32.309 23.7662 31.1129C25.6691 28.911 25.6962 28.911 27.0283 28.911C28.17 28.911 28.3603 28.8295 28.3603 28.3673C28.3603 27.9052 28.17 27.8237 26.9195 27.8237C25.7778 27.8237 25.2069 27.9868 24.2011 28.6392Z" fill="#0064DF"/>
<path d="M29.0669 30.0528C27.8708 33.9945 27.898 33.8042 28.9853 33.8042H29.9368L30.5076 31.6838C30.8066 30.5421 31.1329 29.1829 31.2416 28.6936C31.4047 27.8509 31.3775 27.8237 30.5892 27.8237C29.7737 27.8237 29.7193 27.8781 29.0669 30.0528Z" fill="#0064DF"/>
<path d="M32.4923 29.645C32.302 30.678 32.0845 32.01 32.003 32.6353C31.867 33.6139 31.7311 33.8042 31.1059 33.8857C30.7253 33.9401 31.0787 33.9401 31.9486 33.8857C33.2534 33.777 33.4981 33.8314 33.5796 34.2663C33.6884 34.7556 34.6126 29.4819 34.6126 28.3946C34.6126 27.9324 34.4495 27.8237 33.7155 27.8237H32.7913L32.4923 29.645Z" fill="#0064DF"/>
<path d="M35.2106 30.2431C34.7213 33.9129 34.7213 33.9945 35.6999 33.8586C36.4882 33.7498 36.5154 33.777 36.5426 34.7828C36.5698 35.8158 37.1134 32.1732 37.3853 29.2373L37.5212 27.8237H36.5154H35.5368L35.2106 30.2431Z" fill="#0064DF"/>
<path d="M38.3094 28.8295C38.2279 29.4003 38.1735 31.0858 38.2007 32.5809C38.2279 34.076 38.2822 34.8915 38.3366 34.4022C38.4454 33.6682 38.5541 33.5051 39.0434 33.5867C39.5599 33.6682 39.6414 33.8585 39.723 35.2721L39.8046 36.8488L38.8531 36.74L37.9289 36.6313L37.7658 39.2409C37.657 40.6545 37.5483 42.5302 37.4667 43.3729L37.3308 44.9496H39.5055H41.6802V43.4545C41.6802 42.0681 41.6259 41.9593 41.055 41.9593C40.4298 41.9593 40.4026 41.8778 40.2123 39.1866C40.1308 37.6371 40.1308 34.4566 40.2123 32.1187L40.4026 27.8237H39.4512C38.5541 27.8237 38.4725 27.878 38.3094 28.8295Z" fill="#0064DF"/>
<path d="M42.5502 28.4218C42.4143 28.7751 42.3328 32.445 42.3328 36.6041C42.3599 45.5205 42.1425 44.9496 45.5405 44.9496H47.6608V43.7807C47.6608 42.3943 47.4977 42.1225 46.4375 41.7691C45.6764 41.5244 45.622 41.4157 45.4046 39.6216C45.2958 38.5886 45.2414 35.843 45.2686 33.5323L45.3502 29.3188L46.1113 29.2373C46.6822 29.1557 46.8453 28.9926 46.8453 28.4761C46.8453 27.8509 46.7909 27.8237 44.8065 27.8237C42.9308 27.8237 42.7405 27.8781 42.5502 28.4218Z" fill="#0064DF"/>
<path d="M47.7424 30.0528C47.8512 31.3033 47.9327 32.6897 47.9327 33.1246C47.9327 33.9401 47.9599 33.9401 49.0201 33.8586L50.1346 33.7499L49.9715 31.6567C49.6725 27.8237 49.6725 27.8237 48.558 27.8237H47.5793L47.7424 30.0528Z" fill="#0064DF"/>
<path d="M50.6511 28.4217C50.6511 28.7479 50.787 30.0799 50.9501 31.4119L51.2764 33.8041H52.3093C53.3423 33.8041 53.3695 33.777 53.3695 32.8527C53.3695 32.3362 53.2336 31.0042 53.0705 29.8625L52.7715 27.8237H51.7113C50.8142 27.8237 50.6511 27.9052 50.6511 28.4217Z" fill="#0064DF"/>
<path d="M54.0489 28.1227C53.9402 28.2858 53.9402 29.1285 54.0218 29.9984C54.2664 32.01 54.946 35.2177 54.9732 34.375C55.0004 33.8042 55.1091 33.7498 55.9518 33.8585C56.6858 33.9401 56.9033 33.8585 56.9033 33.5323C56.9033 33.0158 56.3868 30.1071 56.1965 29.3732C56.0877 29.047 56.1965 28.911 56.5499 28.911C56.9576 28.911 57.1751 29.4004 57.6916 31.6566C58.045 33.1517 58.4256 34.2663 58.5071 34.1304C58.5887 33.9945 58.9421 33.8042 59.2954 33.6954C59.7576 33.5323 59.9479 33.6411 60.1653 34.1304C60.5731 35.1362 60.1653 32.6624 59.5129 30.1343L58.9421 27.9596L56.577 27.8781C55.0547 27.8237 54.1577 27.9052 54.0489 28.1227Z" fill="#0064DF"/>
<path d="M60.1654 28.3674C60.1654 28.748 60.3557 28.9111 60.7906 28.9111C61.3615 28.9111 61.4974 29.2101 62.2314 31.6567C62.6663 33.1518 63.0469 34.1848 63.1013 33.9673C63.21 33.4508 65.3304 33.3421 65.3304 33.8586C65.3304 34.0217 65.3847 34.1032 65.4663 34.0217C65.5478 33.9401 65.276 32.744 64.8139 31.3848C64.1071 29.1285 64.0799 28.9111 64.5148 28.9111C64.8682 28.9111 64.977 28.7751 64.8682 28.3674C64.7323 27.8781 64.4877 27.8237 62.4489 27.8237C60.3557 27.8237 60.1654 27.8781 60.1654 28.3674Z" fill="#0064DF"/>
<path d="M66.6896 29.9169C67.4507 31.9828 68.7284 34.9459 68.4837 33.9944C68.3478 33.6139 68.5109 33.5323 69.408 33.5323C70.006 33.5323 70.4953 33.478 70.4953 33.3964C70.4953 33.342 70.2507 32.6352 69.9517 31.8741C69.6255 31.1129 69.4352 30.4333 69.4895 30.379C69.5439 30.3246 70.305 31.0042 71.1749 31.9013C72.7516 33.478 72.8332 33.5323 74.2195 33.5323C75.5787 33.5323 75.6603 33.5867 76.6117 34.81L77.6175 36.1148L73.5671 36.1963C70.0332 36.2507 69.5167 36.2235 69.2177 35.7886C68.7012 35.109 68.7556 35.3265 70.1148 39.4041C72.1264 45.3845 71.8274 44.9496 73.8662 44.9496H75.6059L74.1108 41.47C72.0448 36.6857 72.072 37.0662 73.703 37.0662H75.0622L76.2855 39.1594C76.9651 40.3283 77.9166 42.0953 78.4059 43.1283L79.3029 44.9496H81.1515C82.1573 44.9496 83 44.868 83 44.7593C83 44.1613 79.3029 38.072 77.3729 35.5168C74.8176 32.0916 73.4856 30.6508 71.3652 28.9654C69.9517 27.8509 69.8429 27.8237 67.9129 27.8237H65.9012L66.6896 29.9169Z" fill="#0064DF"/>
<path d="M16.6712 36.7128C15.611 38.208 13.1101 43.0195 12.7295 44.3244L12.5664 44.9496H17.8673H23.1953V43.4545V41.9593H20.4769C18.2479 41.9593 17.7585 41.8778 17.7585 41.5516C17.7585 41.3341 18.3022 39.8934 18.9818 38.3711C19.6886 36.74 19.9604 35.8973 19.6342 36.3051C19.2265 36.8759 18.8459 37.0662 18.1935 37.0662C16.9974 37.0662 16.8615 36.8488 17.5139 35.9517C17.8129 35.5167 18.0032 35.1634 17.9216 35.1634C17.8673 35.1634 17.2964 35.8701 16.6712 36.7128Z" fill="#0064DF"/>
<path d="M33.1989 36.0332C33.1174 36.8216 33.0086 36.9303 32.2475 37.0119C31.6766 37.0662 31.3232 37.2837 31.2145 37.6099C31.0242 38.208 29.9912 44.1069 29.9912 44.5962C29.9912 44.8408 30.4262 44.9496 31.2145 44.9496C31.8941 44.9496 32.4378 44.8952 32.4378 44.8137C32.4378 44.7593 32.6009 43.3729 32.8183 41.7691C33.362 37.7458 33.6067 35.1634 33.4164 35.1634C33.362 35.1634 33.2533 35.5711 33.1989 36.0332Z" fill="#0064DF"/>
<path d="M55.1908 37.3381C55.2724 38.4526 55.4898 40.3555 55.7073 41.5516C56.1966 44.5962 56.6587 44.9496 59.8664 44.9496C62.9111 44.9496 63.1013 44.7593 62.6392 42.5574C62.4489 41.7147 61.9868 39.8934 61.6062 38.5342C60.8994 36.0876 60.8994 36.0876 60.1111 36.1963C59.5946 36.2779 59.1868 36.1692 59.0509 35.9517C58.6704 35.3536 58.7519 36.0604 59.35 38.9691C60.0024 42.1496 60.0296 42.0137 59.2956 41.905C58.7519 41.8234 58.5888 41.4429 57.9636 38.6973C57.5558 36.9847 57.2024 35.7886 57.2024 36.0332C57.1752 36.4138 56.9306 36.5226 56.251 36.5226C55.4898 36.5226 55.2724 36.4138 55.1908 35.8973C55.1093 35.5711 55.1093 36.2235 55.1908 37.3381Z" fill="#0064DF"/>
<path d="M63.4547 35.5711C63.4547 35.707 63.944 37.8818 64.5693 40.3827L65.6838 44.9496H67.5595C68.5653 44.9496 69.408 44.868 69.408 44.7321C69.408 44.6234 68.7828 42.8292 68.0216 40.7361C67.2605 38.6429 66.5809 36.74 66.5265 36.5226C66.4178 36.2235 66.0644 36.142 65.0586 36.1963C63.9712 36.2779 63.7266 36.2235 63.6178 35.7886C63.5363 35.5167 63.4819 35.408 63.4547 35.5711Z" fill="#0064DF"/>
<path d="M26.1039 39.5672C24.2011 45.4389 24.2282 44.9496 25.968 44.9496H27.436L28.034 42.4215C28.3602 41.0623 28.768 39.2953 28.9311 38.507C29.2029 37.2022 29.2845 37.0934 30.0728 36.9847C30.5621 36.9303 30.1 36.9303 29.0942 37.0119L27.2457 37.1206L27.436 36.4138C27.5175 36.0333 27.5447 35.7071 27.4903 35.7071C27.436 35.7071 26.8107 37.4468 26.1039 39.5672Z" fill="#0064DF"/>
<path d="M48.2317 39.4041C48.2317 41.5244 48.2861 43.6448 48.3676 44.1069C48.5307 44.8952 48.6123 44.9496 49.7812 44.9496H51.0045L50.8142 42.0137C50.7054 40.4099 50.5423 38.6429 50.4608 38.072C50.3249 37.0934 50.352 37.0119 50.9501 37.1206C51.5753 37.2022 51.6025 37.3109 51.9831 41.0623L52.3637 44.9496H53.8316C55.1908 44.9496 55.2723 44.9224 55.1364 44.3244C55.0821 43.9981 54.8374 42.4487 54.5927 40.872C54.1034 37.6915 53.7229 35.6798 53.6685 36.1692C53.6413 36.441 52.9345 36.5226 51.086 36.5226C48.8569 36.5226 48.5035 36.4682 48.3948 36.0332C48.3132 35.7886 48.2589 37.3109 48.2317 39.4041Z" fill="#0064DF"/>
<path d="M36.2437 36.5497C36.2437 36.74 35.8903 36.8216 35.3194 36.74L34.3952 36.6313L33.9602 39.3769C33.7427 40.872 33.4709 42.7477 33.3622 43.5088L33.1719 44.9496H34.5311H35.8903L36.0806 43.6448C36.3796 41.606 36.6242 36.2507 36.434 36.2507C36.3252 36.2507 36.2437 36.3866 36.2437 36.5497Z" fill="#0064DF"/>
</svg>
