<svg width="21" height="21" viewBox="0 0 21 21" fill="none" xmlns="http://www.w3.org/2000/svg">
<path d="M20.5 5.5C20.5 7.98528 18.4853 10 16 10C15.8706 10 15.7425 9.99454 15.6159 9.98384C14.5404 9.89293 13.3516 10.0552 12.6655 10.8883L5.51432 19.5719C5.03037 20.1596 4.30897 20.5 3.54769 20.5C2.14064 20.5 1 19.3594 1 17.9523C1 17.191 1.34044 16.4696 1.9281 15.9857L10.6117 8.83452C11.4448 8.14841 11.6071 6.95956 11.5162 5.88411C11.5055 5.75749 11.5 5.62938 11.5 5.5C11.5 3.01472 13.5147 1 16 1C16.6603 1 17.2875 1.14223 17.8524 1.39774L14.5762 4.67397C14.8323 5.78963 15.7105 6.66785 16.8262 6.92397L20.1024 3.64779C20.3578 4.21268 20.5 4.83973 20.5 5.5Z" stroke="#0064DF" stroke-linecap="round" stroke-linejoin="round"/>
<path d="M3.61723 17.875H3.62473V17.8825H3.61723V17.875Z" stroke="#0064DF" stroke-linecap="round" stroke-linejoin="round"/>
</svg>
