<svg width="65" height="53" viewBox="0 0 65 53" fill="none" xmlns="http://www.w3.org/2000/svg">
<path fill-rule="evenodd" clip-rule="evenodd" d="M34.6891 18.8564C35.8574 22.872 30.8193 25.7197 28.4098 25.1356C25.9272 24.4786 25.0511 22.3614 25.343 20.1707C20.1594 22.2151 16.0706 17.5421 17.093 13.5264C18.0422 9.58349 22.788 7.53907 27.3878 9.36437C26.8037 4.3267 29.9433 0.237854 33.9589 0.237854C38.0474 0.237854 41.4793 5.42188 38.2665 10.0217C40.4573 10.2408 42.2094 11.6279 42.2094 14.1837C42.2094 16.8119 38.1937 20.9739 34.6891 18.8564Z" fill="#0064DF"/>
<path fill-rule="evenodd" clip-rule="evenodd" d="M37.6096 17.3231C38.9243 15.936 38.4129 14.4753 37.9746 13.9643C37.5364 13.4533 36.8799 12.285 35.2733 12.5041C38.2665 10.4597 37.4632 4.91058 32.9366 4.91058C31.0381 4.91058 28.2635 6.22488 27.6066 9.65637C24.2479 9.36408 22.2766 11.8467 21.8384 13.672C20.7432 18.1259 25.7813 20.3163 28.4827 17.8341C27.8985 19.4402 28.8477 20.3163 29.2128 20.8273C29.6506 21.4115 30.8921 22.2876 32.4983 21.3383C34.1045 20.3891 34.3236 19.659 34.3236 18.4178C35.5656 18.7105 36.2957 18.6378 37.6096 17.3231V17.3231Z" fill="#0064DF"/>
<path fill-rule="evenodd" clip-rule="evenodd" d="M3.45425 32.9749L0.0673828 50.2316C0.144174 50.6039 0.339168 51.718 1.00295 52.1422C1.64623 52.5527 2.74222 52.2668 3.31112 52.0195C19.2898 45.0802 24.2675 42.9742 27.1108 47.9798C30.094 46.9702 32.6639 46.1167 32.9631 43.6509L28.4364 30.9087C28.3869 30.7355 28.0645 30.1183 27.4297 29.7621C26.7948 29.4059 25.3997 29.2414 25.1287 29.2692L20.7882 29.9137C18.5592 30.058 16.6463 31.8825 15.7606 33.8176L11.5214 43.9166C17.5481 40.4405 16.2535 40.8703 19.8084 39.5046L21.4584 34.737C21.6007 34.3656 21.8834 33.2201 22.2099 33.0669C22.5359 32.9146 23.0763 32.9419 23.4076 32.9077L24.7005 40.1812C22.2243 40.1498 18.632 40.4884 10.7764 45.951C10.1078 46.4158 8.8389 46.8528 8.79226 46.2976L11.1173 34.3828C11.0868 32.4241 9.04917 31.893 8.02515 31.9987L3.45425 32.9749V32.9749ZM20.4477 42.0668C22.4648 41.3906 26.5616 40.4815 26.4752 43.0474C25.2666 42.0001 23.7529 41.8658 20.4477 42.0668Z" fill="#0064DF"/>
<path fill-rule="evenodd" clip-rule="evenodd" d="M35.4916 27.3607L32.1047 44.6174C32.1815 44.9897 32.3765 46.1038 33.0399 46.528C33.6832 46.9385 34.7796 46.6526 35.3481 46.4053C51.3271 39.466 56.3049 37.36 59.1482 42.3656C62.1314 41.356 64.7013 40.5025 65 38.0367L60.4737 25.2945C60.4243 25.1213 60.1014 24.5041 59.467 24.1479C58.8318 23.7917 57.4371 23.6272 57.1661 23.655L52.8252 24.2995C50.5966 24.4438 48.6836 26.2683 47.7971 28.2026L43.5583 38.3016C49.585 34.8255 48.2904 35.2553 51.8458 33.8895L53.495 29.122C53.6377 28.7506 53.9207 27.6047 54.2464 27.4519C54.5725 27.2996 55.1132 27.3269 55.4445 27.2927L56.7371 34.5662C54.2613 34.5344 50.6686 34.8734 42.8129 40.336C42.1447 40.8008 40.875 41.2378 40.8284 40.6826L43.1535 28.7674C43.1229 26.8087 41.0849 26.2779 40.0613 26.3841L35.4916 27.3607V27.3607ZM52.4846 36.453C54.5021 35.7768 58.5986 34.8677 58.5121 37.4336C57.3036 36.3863 55.7899 36.252 52.4846 36.453V36.453Z" fill="#0064DF"/>
</svg>
