<svg width="207" height="56" viewBox="0 0 207 56" fill="none" xmlns="http://www.w3.org/2000/svg">
<path fill-rule="evenodd" clip-rule="evenodd" d="M26.9767 16.3853C23.7849 16.3853 21.0043 17.5456 18.7394 19.8627C16.4756 22.1822 15.342 25.0271 15.342 28.293C15.342 31.6646 16.4756 34.4061 18.7394 36.7244C21.0055 39.1497 23.7849 40.3076 26.9767 40.3076C30.1685 40.3076 32.9479 39.1497 35.2117 36.7244C37.4778 34.4061 38.6102 31.6646 38.6102 28.293C38.6102 25.026 37.4778 22.181 35.2117 19.8627C32.9479 17.5444 30.1685 16.3853 26.9767 16.3853V16.3853Z" fill="#0064DF"/>
<path fill-rule="evenodd" clip-rule="evenodd" d="M26.9768 14.2774V0.681519C22.2414 0.681519 17.8126 1.9453 13.694 4.26476V24.9213C14.4153 21.8647 16.0623 19.3348 18.4305 17.4386C21.0044 15.3307 23.785 14.2774 26.9768 14.2774V14.2774ZM24.0928 42.2039C21.0044 41.4656 18.5339 39.7809 16.6802 37.2511C14.6208 34.7212 13.694 31.8762 13.694 28.608H0C0 33.4562 1.23582 37.9882 3.6041 42.2027H24.0928V42.2039ZM40.3618 31.8762C39.6417 34.9328 38.0969 37.4627 35.6264 39.4647C33.1547 41.4656 30.2719 42.5213 27.0801 42.5213V55.9055C31.8167 55.9055 36.2443 54.7452 40.3618 52.3223V31.8762V31.8762ZM53.9524 28.1883C53.9524 23.3401 52.7166 18.8082 50.3495 14.5925H30.3742C33.4626 15.3307 35.9342 17.0165 37.7868 19.4395C39.845 22.0752 40.773 24.9201 40.773 28.1872H53.9524V28.1883V28.1883ZM60.1304 15.3307V31.3495H64.8658V15.3307H60.1304ZM89.6799 15.3307H84.8411V26.9234L75.677 15.3307H68.2643V31.3495H73.1031V19.6522L82.1639 31.3495H89.6799V15.3307V15.3307ZM97.6082 21.6543V19.1256H106.153C107.08 19.1256 107.596 19.5476 107.596 20.3894C107.596 21.2334 107.081 21.6543 106.153 21.6543H97.6082ZM97.6082 24.9213H106.256C107.389 24.9213 108.008 25.448 108.008 26.2897C108.008 27.135 107.389 27.45 106.256 27.45H97.6082V24.9213V24.9213ZM110.066 23.2355V23.1297C110.89 22.9181 111.404 22.603 111.712 22.181C112.227 21.6531 112.434 20.7056 112.434 19.4406C112.434 17.9653 111.919 16.9119 110.993 16.1736C110.066 15.5423 108.624 15.3307 106.667 15.3307H92.7683V31.3495H108.214C109.757 31.3495 110.889 31.1379 111.61 30.6136C112.434 29.873 112.948 28.715 112.948 27.135C112.948 25.87 112.741 24.9213 112.331 24.3946C111.817 23.7622 111.097 23.3401 110.066 23.2355V23.2355ZM135.497 15.3307H130.761V24.6051C130.761 25.5538 130.453 26.2909 130.144 26.7129C129.732 27.2396 128.908 27.4512 127.981 27.4512H123.245C122.216 27.4512 121.599 27.2396 121.084 26.7129C120.672 26.2909 120.567 25.5538 120.567 24.6051V15.3307H115.729V25.6596C115.729 27.6616 116.243 29.1382 117.272 30.0846C118.301 31.1379 119.95 31.5611 122.113 31.5611H129.115C131.275 31.5611 132.925 31.1391 133.954 30.0846C134.983 29.1382 135.497 27.6616 135.497 25.6596V15.3307V15.3307ZM143.426 23.1297V19.2302H151.044C152.333 19.2302 153.204 19.4546 153.204 20.916V21.4427C153.204 22.6018 152.587 23.1285 151.456 23.1285H143.426V23.1297V23.1297ZM143.426 27.2396H151.044C151.765 27.2396 152.28 27.3466 152.587 27.6616C152.895 27.9767 153 28.608 153 29.4533V31.3495H157.839V28.6092C157.839 27.4512 157.634 26.5025 157.12 25.9747C156.705 25.5538 156.088 25.2375 155.265 25.0271C156.294 24.8167 157.015 24.29 157.427 23.6564C157.735 23.0239 157.942 22.181 157.942 21.0218V20.0743C157.942 18.4943 157.634 17.3351 157.015 16.5968C156.189 15.647 154.957 15.3319 153.204 15.3319H138.585V31.3507H143.426V27.2396V27.2396ZM171.328 21.3392L166.489 21.1276C166.182 21.1276 165.87 20.9172 165.768 20.7056C165.664 20.5998 165.561 20.2836 165.561 19.9685C165.561 19.1244 166.18 18.7047 167.414 18.7047H172.77C173.799 18.7047 174.52 18.8093 174.828 19.0198C175.034 19.2314 175.136 19.6522 175.136 20.3894H179.974V19.8627C179.974 18.1769 179.667 17.0177 178.945 16.3852C178.122 15.4365 176.371 15.0157 173.901 15.0157H167.106C164.327 15.0157 162.474 15.5423 161.648 16.491C161.031 17.2293 160.724 18.4943 160.724 20.1801C160.724 21.3404 160.826 22.0775 161.031 22.7088C161.134 23.3413 161.546 23.7633 162.061 24.1842C163.09 24.8167 165.254 25.1329 168.855 25.1329L174.621 25.3433C175.033 25.3433 175.342 25.5549 175.444 25.7654L175.651 26.6095C175.651 27.1361 175.444 27.5558 175.034 27.7674L173.592 27.979H167.62L166.076 27.664C165.768 27.4524 165.561 26.9257 165.561 26.0839H160.723V27.2419C160.723 28.9289 161.237 30.0869 162.163 30.7205C162.989 31.2472 164.634 31.5634 166.899 31.5634H172.77C175.962 31.5634 178.123 31.2484 179.05 30.6171C179.341 30.4676 179.601 30.26 179.813 30.0064C180.025 29.7529 180.186 29.4585 180.286 29.1405C180.492 28.5069 180.593 27.5582 180.593 26.5036C180.593 25.2399 180.491 24.397 180.181 23.7645C179.974 23.025 179.46 22.4995 178.843 22.1833C177.713 21.5485 175.241 21.3392 171.328 21.3392V21.3392ZM196.657 15.3307H190.375L181.83 31.3495H187.286L188.625 28.5045L190.478 25.0259L193.566 19.0198L196.657 25.0259H190.478L188.625 28.5045H198.512L199.951 31.3495H205.304L196.657 15.3307ZM99.6096 43.9862V42.7306L104.044 42.7213V46.6975C103.411 47.2265 102.7 47.6502 101.938 47.9531C101.226 48.2301 100.471 48.3724 99.7096 48.3728C98.6805 48.3728 97.7446 48.1484 96.9051 47.6962C96.0848 47.2664 95.4184 46.5818 95.0014 45.7406C94.5721 44.8872 94.3574 43.935 94.3574 42.8817C94.3574 41.8377 94.5721 40.8657 94.998 39.9612C95.4228 39.0555 96.0373 38.3835 96.837 37.9451C97.6366 37.5068 98.559 37.2894 99.6017 37.2894C100.358 37.2894 101.043 37.4138 101.655 37.6661C102.268 37.9161 102.748 38.266 103.094 38.7125C103.443 39.1624 103.707 39.7461 103.89 40.4681L102.639 40.8203C102.48 40.2727 102.286 39.8437 102.054 39.5333C101.82 39.2217 101.486 38.9729 101.052 38.7834C100.595 38.5917 100.105 38.4961 99.6108 38.502C98.977 38.502 98.4283 38.602 97.9672 38.7997C97.5037 38.9973 97.1335 39.2566 96.8484 39.5786C96.5644 39.8984 96.3463 40.2507 96.1873 40.639C95.9168 41.3236 95.7809 42.0561 95.7875 42.7945C95.7875 43.7502 95.9488 44.5501 96.2702 45.1942C96.5928 45.8371 97.0596 46.3138 97.6741 46.6242C98.2886 46.9381 98.9395 47.0939 99.6301 47.0939C100.233 47.0926 100.83 46.9714 101.388 46.737C101.961 46.5033 102.393 46.251 102.688 45.9813V43.985H99.6096V43.9862V43.9862ZM105.909 48.1914V40.425H107.065V41.6016C107.361 41.0517 107.633 40.689 107.887 40.5134C108.128 40.34 108.415 40.247 108.71 40.2472C109.145 40.2472 109.583 40.3902 110.032 40.6715L109.588 41.8958C109.306 41.7125 108.98 41.6127 108.645 41.6074C108.364 41.6074 108.113 41.6958 107.889 41.869C107.663 42.0434 107.505 42.2818 107.41 42.5887C107.262 43.086 107.189 43.6036 107.195 44.1234V48.1903H105.909V48.1914V48.1914ZM115.768 48.1914V47.0497C115.177 47.9287 114.372 48.367 113.359 48.367C112.913 48.367 112.494 48.2786 112.105 48.1031C111.717 47.9275 111.431 47.7055 111.242 47.4427C111.042 47.1505 110.906 46.8173 110.844 46.4661C110.793 46.2068 110.767 45.7987 110.767 45.2349V40.425H112.052V44.7303C112.052 45.4209 112.078 45.8813 112.129 46.1196C112.211 46.4673 112.382 46.737 112.644 46.937C112.907 47.1346 113.232 47.23 113.615 47.23C114.001 47.23 114.362 47.1323 114.7 46.93C115.039 46.7277 115.279 46.4487 115.419 46.1034C115.558 45.7534 115.63 45.2477 115.63 44.5861V40.4239H116.915V48.1903H115.768V48.1914V48.1914ZM118.932 51.1666V40.4262H120.103V41.4342C120.378 41.0412 120.691 40.7436 121.039 40.546C121.385 40.3483 121.807 40.2483 122.301 40.2483C122.951 40.2483 123.521 40.4204 124.016 40.761C124.513 41.1017 124.886 41.583 125.136 42.205C125.391 42.8271 125.518 43.5084 125.518 44.249C125.518 45.0442 125.378 45.7592 125.098 46.3952C124.849 46.9979 124.426 47.5082 123.885 47.8578C123.385 48.1871 122.803 48.3637 122.208 48.367C121.779 48.367 121.396 48.274 121.056 48.088C120.731 47.9184 120.445 47.6797 120.218 47.3881V51.1666H118.932V51.1666ZM120.096 44.3513C120.096 45.35 120.294 46.0882 120.688 46.5673C121.083 47.0439 121.562 47.2846 122.124 47.2846C122.694 47.2846 123.185 47.037 123.592 46.5393C123.998 46.0464 124.202 45.2791 124.202 44.2408C124.202 43.2479 124.002 42.5108 123.606 42.0179C123.209 41.5249 122.734 41.2773 122.182 41.2773C121.634 41.2773 121.148 41.5412 120.726 42.0632C120.305 42.5899 120.096 43.3526 120.096 44.3513V44.3513ZM126.588 44.3059C126.588 42.8689 126.978 41.8039 127.761 41.1133C128.413 40.539 129.207 40.2483 130.146 40.2483C131.189 40.2483 132.043 40.5983 132.704 41.2994C133.368 41.9993 133.696 42.9642 133.696 44.1966C133.696 45.1977 133.549 45.9836 133.256 46.5556C132.963 47.1276 132.537 47.5729 131.981 47.8903C131.419 48.2064 130.787 48.3697 130.146 48.3647C129.085 48.3647 128.228 48.0171 127.57 47.3183C126.916 46.6231 126.588 45.6185 126.588 44.3059ZM127.91 44.3059C127.91 45.3023 128.123 46.0475 128.547 46.5405C128.742 46.7792 128.987 46.9701 129.264 47.0991C129.541 47.2281 129.842 47.2919 130.146 47.2858C130.785 47.2858 131.317 47.0358 131.741 46.5382C132.162 46.0406 132.376 45.2825 132.376 44.2652C132.376 43.3049 132.162 42.5759 131.738 42.0806C131.543 41.844 131.299 41.6548 131.024 41.5267C130.749 41.3986 130.45 41.3348 130.147 41.34C129.507 41.34 128.972 41.5854 128.548 42.0783C128.123 42.5689 127.91 43.3142 127.91 44.3059ZM139.503 48.1914V37.4708H146.57V38.7357H140.893V42.0562H145.804V43.3212H140.893V48.1914H139.503V48.1914ZM148.211 38.9857V37.4708H149.498V38.9857H148.211ZM148.211 48.1914V40.425H149.498V48.1914H148.211V48.1914ZM151.457 48.1914V40.425H152.614V41.5284C153.172 40.675 153.976 40.2472 155.027 40.2472C155.486 40.2472 155.905 40.3332 156.287 40.4995C156.673 40.6692 156.959 40.8901 157.148 41.1645C157.341 41.4342 157.472 41.7597 157.551 42.1341C157.596 42.3794 157.621 42.8061 157.621 43.4153V48.1903H156.334V43.4653C156.334 42.9317 156.285 42.5294 156.185 42.262C156.083 41.9948 155.895 41.7713 155.652 41.6284C155.381 41.4647 155.07 41.3822 154.756 41.39C154.234 41.3814 153.728 41.5716 153.336 41.9237C152.938 42.2806 152.742 42.9549 152.742 43.949V48.1903H151.457V48.1914V48.1914ZM164.544 47.2311C164.064 47.6462 163.608 47.9392 163.168 48.1101C162.714 48.2829 162.233 48.37 161.748 48.367C160.915 48.367 160.275 48.1577 159.827 47.7427C159.381 47.3253 159.157 46.7916 159.157 46.1441C159.157 45.7627 159.239 45.4151 159.411 45.1023C159.579 44.7873 159.801 44.535 160.074 44.3466C160.358 44.1521 160.671 44.0064 161.001 43.9153C161.376 43.8236 161.757 43.7575 162.141 43.7176C163.179 43.5909 163.945 43.4409 164.436 43.263C164.44 43.084 164.445 42.9677 164.445 42.9201C164.445 42.3841 164.323 42.0051 164.079 41.7865C163.751 41.4865 163.262 41.3412 162.615 41.3412C162.012 41.3412 161.565 41.4482 161.275 41.6656C160.986 41.8818 160.774 42.2655 160.636 42.8166L159.381 42.6399C159.495 42.0899 159.683 41.6458 159.944 41.3075C160.205 40.9692 160.585 40.7052 161.08 40.5239C161.576 40.3425 162.147 40.2495 162.802 40.2495C163.45 40.2495 163.973 40.3285 164.38 40.4855C164.783 40.6425 165.083 40.8378 165.274 41.0738C165.465 41.3098 165.595 41.6074 165.676 41.9702C165.716 42.1946 165.739 42.5968 165.739 43.1828V44.9361C165.739 46.1627 165.765 46.937 165.823 47.2567C165.876 47.5811 165.985 47.895 166.146 48.1926H164.801C164.659 47.8909 164.572 47.565 164.544 47.2311V47.2311ZM164.436 44.2931C163.968 44.4908 163.269 44.6547 162.337 44.7931C161.808 44.8698 161.431 44.957 161.214 45.0547C161.011 45.1413 160.838 45.2876 160.716 45.4751C160.594 45.6625 160.529 45.8828 160.529 46.108C160.529 46.4603 160.66 46.7509 160.918 46.987C161.178 47.2183 161.556 47.3369 162.058 47.3369C162.554 47.3369 162.994 47.2253 163.378 47.0032C163.764 46.7835 164.051 46.4766 164.23 46.0929C164.37 45.7953 164.437 45.3569 164.437 44.778V44.2931H164.436V44.2931ZM167.73 48.1914V40.425H168.886V41.5284C169.445 40.675 170.248 40.2472 171.3 40.2472C171.759 40.2472 172.178 40.3332 172.559 40.4995C172.946 40.6692 173.232 40.8901 173.42 41.1645C173.613 41.4342 173.746 41.7597 173.824 42.1341C173.87 42.3794 173.894 42.8061 173.894 43.4153V48.1903H172.605V43.4653C172.605 42.9317 172.556 42.5294 172.456 42.262C172.354 41.9955 172.167 41.7721 171.926 41.6284C171.654 41.465 171.342 41.3825 171.027 41.39C170.506 41.3814 169.999 41.5716 169.607 41.9237C169.21 42.2806 169.013 42.9549 169.013 43.949V48.1903H167.73V48.1914V48.1914ZM180.816 45.3465L182.078 45.5151C181.943 46.408 181.587 47.1044 181.017 47.6113C180.449 48.1135 179.751 48.367 178.92 48.367C177.884 48.367 177.048 48.0194 176.418 47.3253C175.788 46.6324 175.471 45.636 175.471 44.3396C175.471 43.4991 175.606 42.7654 175.876 42.1364C176.124 41.5355 176.561 41.0371 177.119 40.7215C177.672 40.4069 178.295 40.2443 178.927 40.2495C179.753 40.2495 180.426 40.4657 180.948 40.8924C181.474 41.3191 181.809 41.9237 181.958 42.7085L180.708 42.9061C180.589 42.3841 180.378 41.9911 180.075 41.7272C179.769 41.4628 179.378 41.3222 178.977 41.3319C178.33 41.3319 177.804 41.5702 177.397 42.0469C176.994 42.519 176.789 43.2712 176.789 44.3001C176.789 45.3442 176.985 46.1034 177.378 46.5754C177.768 47.0474 178.278 47.2858 178.907 47.2858C179.412 47.2858 179.831 47.1242 180.171 46.8091C180.51 46.4905 180.725 46.0045 180.816 45.3465V45.3465ZM183.185 38.9857V37.4708H184.475V38.9857H183.185ZM183.185 48.1914V40.425H184.475V48.1914H183.185V48.1914ZM191.623 45.6895L192.952 45.858C192.743 46.6556 192.355 47.2706 191.79 47.709C191.222 48.1473 190.496 48.367 189.618 48.367C188.506 48.367 187.628 48.0171 186.978 47.3183C186.328 46.6196 186.005 45.6383 186.005 44.3757C186.005 43.0677 186.333 42.0551 186.989 41.3331C187.646 40.6134 188.498 40.2495 189.547 40.2495C190.562 40.2495 191.391 40.6041 192.033 41.3098C192.676 42.0155 192.998 43.0131 192.998 44.2931C192.998 44.3722 192.996 44.4908 192.991 44.6454H187.335C187.381 45.4988 187.616 46.1533 188.042 46.6056C188.466 47.0602 188.992 47.2869 189.627 47.2869C190.097 47.2869 190.499 47.1579 190.833 46.9033C191.164 46.6498 191.427 46.2452 191.623 45.6895V45.6895ZM187.403 43.5618H191.639C191.581 42.9096 191.419 42.4178 191.152 42.0946C190.963 41.8497 190.72 41.6533 190.444 41.5209C190.168 41.3885 189.865 41.3238 189.56 41.3319C189.285 41.325 189.011 41.3751 188.755 41.4792C188.499 41.5833 188.266 41.7392 188.071 41.9376C187.668 42.3422 187.445 42.8852 187.403 43.5618V43.5618ZM194.553 48.1914V40.425H195.709V41.6016C196.005 41.0517 196.277 40.689 196.528 40.5134C196.779 40.3378 197.054 40.2472 197.354 40.2472C197.789 40.2472 198.227 40.3902 198.676 40.6715L198.232 41.8958C197.95 41.7125 197.624 41.6127 197.289 41.6074C197.008 41.6074 196.757 41.6958 196.533 41.869C196.307 42.0434 196.149 42.2818 196.054 42.5887C195.906 43.086 195.833 43.6036 195.839 44.1234V48.1903H194.553V48.1914V48.1914ZM198.959 44.3059C198.959 42.8689 199.35 41.8039 200.133 41.1133C200.782 40.539 201.578 40.2483 202.518 40.2483C203.561 40.2483 204.415 40.5983 205.076 41.2994C205.739 41.9993 206.067 42.9642 206.067 44.1966C206.067 45.1977 205.921 45.9836 205.628 46.5556C205.335 47.1276 204.909 47.5729 204.35 47.8903C203.789 48.2064 203.158 48.3697 202.518 48.3647C201.457 48.3647 200.599 48.0171 199.942 47.3183C199.285 46.6231 198.959 45.6185 198.959 44.3059V44.3059ZM200.281 44.3059C200.281 45.3023 200.493 46.0475 200.919 46.5405C201.114 46.7792 201.359 46.9701 201.635 47.0991C201.912 47.2281 202.214 47.2919 202.518 47.2858C203.156 47.2858 203.687 47.0358 204.11 46.5382C204.534 46.0406 204.745 45.2825 204.745 44.2652C204.745 43.3049 204.534 42.5759 204.107 42.0806C203.913 41.8439 203.67 41.6546 203.395 41.5264C203.12 41.3983 202.821 41.3346 202.519 41.34C201.878 41.34 201.343 41.5854 200.92 42.0783C200.493 42.5689 200.281 43.3142 200.281 44.3059V44.3059Z" fill="#0064DF"/>
</svg>
