<svg width="247" height="29" viewBox="0 0 247 29" fill="none" xmlns="http://www.w3.org/2000/svg">
<path d="M234.105 6.09234C241.727 6.09234 247 9.03499 247 17.168C247 24.9736 241.126 28.2784 234.105 28.2784C227.084 28.2784 220.981 24.9736 220.981 17.1652C220.981 9.04307 226.472 6.09234 234.105 6.09234V6.09234ZM234.105 23.9355C238.631 23.9355 238.807 20.5612 238.807 17.168C238.807 13.7746 238.642 10.4326 234.105 10.4326C229.568 10.4326 229.172 13.7371 229.172 17.1652C229.172 20.5935 229.568 23.9355 234.105 23.9355ZM197.909 17.117C197.909 9.71085 203.274 6.43864 211.074 6.43864C213.75 6.41526 216.421 6.6695 219.044 7.1976V11.5456C217.432 11.4276 215.43 11.2265 213.728 11.2265C208.627 11.2265 206.1 12.7314 206.1 17.3637C206.1 21.9963 208.63 23.4556 213.73 23.4556C216.169 23.4556 217.435 23.2542 219.001 23.131V27.6346C216.747 28.0724 214.456 28.288 212.16 28.2781C204.012 28.2781 197.909 25.2846 197.909 17.117V17.117ZM195.339 17.168C195.339 24.9736 189.468 28.281 182.447 28.281C175.425 28.281 169.323 24.9764 169.323 17.1678C169.323 9.03499 174.827 6.09494 182.447 6.09494C190.066 6.09494 195.339 9.03759 195.339 17.1678V17.168ZM177.516 17.168C177.516 20.5935 177.923 23.9355 182.447 23.9355C186.97 23.9355 187.151 20.5612 187.151 17.168C187.151 13.7746 186.986 10.4355 182.447 10.4355C177.907 10.4355 177.516 13.7772 177.516 17.168V17.168ZM150.171 13.233V27.9751H141.942V0.027541H150.176V9.22805C152.76 8.08528 155.153 7.11449 158.739 7.11449C161.934 7.11449 165.83 8.88204 165.83 13.7103V27.986H157.629V16.1834C157.615 15.4914 157.591 14.6868 157.562 14.1504C157.562 14.1504 157.465 12.4766 154.404 12.4766C152.963 12.5123 151.535 12.7672 150.171 13.2327L150.171 13.233ZM130.864 28.2781C122.713 28.2781 116.613 25.2844 116.613 17.1086C116.613 9.70277 121.959 6.43835 129.773 6.43835C132.452 6.41468 135.127 6.66921 137.753 7.19731V11.5454C136.136 11.4273 134.135 11.2262 132.435 11.2262C127.331 11.2262 124.804 12.7444 124.804 17.3634C124.804 21.9824 127.331 23.4553 132.434 23.4553C134.873 23.4553 136.136 23.2539 137.71 23.1307V27.6346C135.454 28.0718 133.161 28.2873 130.864 28.2781V28.2781ZM113.89 13.3801V27.5999C113.89 27.5999 106.917 28.2758 102.684 28.2758C97.8906 28.2758 90.0366 28.5952 90.0366 21.3017C90.0366 14.1746 99.2862 14.7272 105.823 14.7272C105.782 12.0636 105.475 10.6663 100.294 10.6663C97.6059 10.7102 94.9241 10.9387 92.2674 11.3503V7.12228C95.6162 6.63438 98.9951 6.38173 102.379 6.3662C107.741 6.3662 113.89 6.88392 113.89 13.3804V13.3801ZM105.955 24.0103V18.7532C105.259 18.7157 103.077 18.7157 102.511 18.7157C100.334 18.7157 98.1518 18.8793 98.1518 21.4624C98.1518 24.0937 100.334 24.2521 102.511 24.2521C103.663 24.2533 104.814 24.1725 105.955 24.0106V24.0103ZM80.5441 13.2304C80.5441 13.2304 87.5494 14.4049 87.5494 20.6229C87.5494 26.929 79.9594 27.9644 75.425 27.9644H61.3258C60.585 27.9529 59.9926 27.3474 60.0001 26.6098V1.36886C60.0001 0.636445 60.5902 0.0393728 61.3258 0.027541H74.2262C74.9592 0.027541 76.1499 0.000703044 76.8774 0.000703044C76.8774 0.000703044 86.7414 -0.216309 86.7414 6.97511C86.7414 12.1251 80.9539 12.6428 79.2377 13.0425C79.2377 13.0263 79.825 13.1146 80.5444 13.2301L80.5441 13.2304ZM68.6892 5.69266V9.96855C68.6771 10.7073 69.2672 11.3162 70.0092 11.3312H71.9816C72.865 11.3146 73.7459 11.2303 74.6164 11.079C74.6164 11.079 77.5319 10.5694 77.5319 7.86278C77.5319 5.15648 76.1389 4.35163 73.3042 4.35163H70.0202C69.2823 4.36028 68.6889 4.95822 68.6889 5.69295L68.6892 5.69266ZM75.2847 23.3376C75.2847 23.3376 78.5183 22.7071 78.5183 19.8181C78.5183 16.9427 77.0364 16.0628 73.9838 16.0628H69.9581C69.2165 16.0732 68.6226 16.6786 68.6301 17.4174V22.2456C68.6301 22.9792 69.2216 23.5765 69.9584 23.5869H72.6526C73.5352 23.5723 74.4154 23.4888 75.285 23.3373L75.2847 23.3376Z" fill="#0064DF"/>
</svg>
