<svg width="55" height="2" viewBox="0 0 55 2" fill="none" xmlns="http://www.w3.org/2000/svg">
<path d="M0.466667 0.900024C0.466667 1.19458 0.705448 1.43336 1 1.43336C1.29455 1.43336 1.53333 1.19458 1.53333 0.900024C1.53333 0.605473 1.29455 0.366691 1 0.366691C0.705448 0.366691 0.466667 0.605473 0.466667 0.900024ZM53.4667 0.900024C53.4667 1.19458 53.7054 1.43336 54 1.43336C54.2946 1.43336 54.5333 1.19458 54.5333 0.900024C54.5333 0.605473 54.2946 0.366691 54 0.366691C53.7054 0.366691 53.4667 0.605473 53.4667 0.900024ZM1 1.00002H54V0.800024H1V1.00002Z" fill="#006EB6"/>
</svg>
